<svg width="440" height="81" viewBox="0 0 440 81" fill="none" xmlns="http://www.w3.org/2000/svg">
<g filter="url(#filter0_d_107_15)">
<mask id="path-1-outside-1_107_15" maskUnits="userSpaceOnUse" x="1" y="-2" width="437" height="77" fill="black">
<rect fill="white" x="1" y="-2" width="437" height="77"/>
<path d="M34 73C29.4 73 25.2333 72.4667 21.5 71.4C17.8333 70.2667 14.5667 68.6667 11.7 66.6C8.83333 64.4667 6.26667 61.9667 4 59.1L14.3 47.4C17.6333 51.8667 20.9667 54.8667 24.3 56.4C27.7 57.9333 31.2 58.7 34.8 58.7C36.6 58.7 38.2333 58.4667 39.7 58C41.1667 57.5333 42.3 56.8667 43.1 56C43.9 55.0667 44.3 53.9333 44.3 52.6C44.3 51.6 44.0333 50.7 43.5 49.9C43.0333 49.1 42.3667 48.4 41.5 47.8C40.6333 47.2 39.6 46.6667 38.4 46.2C37.2 45.6667 35.9333 45.2333 34.6 44.9C33.2667 44.5 31.9 44.1667 30.5 43.9C26.6333 43.0333 23.2667 41.9667 20.4 40.7C17.5333 39.4333 15.1333 37.9 13.2 36.1C11.3333 34.2333 9.93333 32.1333 9 29.8C8.06667 27.4 7.6 24.7333 7.6 21.8C7.6 18.6667 8.3 15.8 9.7 13.2C11.1667 10.5333 13.1 8.26666 15.5 6.4C17.9667 4.46666 20.8 2.99999 24 2C27.2 0.93333 30.5333 0.399998 34 0.399998C38.6 0.399998 42.5333 0.899997 45.8 1.9C49.1333 2.83333 51.9667 4.2 54.3 6C56.7 7.8 58.7333 9.96666 60.4 12.5L49.9 22.6C48.5 20.8667 46.9667 19.4333 45.3 18.3C43.7 17.1667 41.9667 16.3 40.1 15.7C38.3 15.1 36.4333 14.8 34.5 14.8C32.5 14.8 30.7667 15.0667 29.3 15.6C27.9 16.0667 26.8 16.7667 26 17.7C25.2 18.5667 24.8 19.6333 24.8 20.9C24.8 22.0333 25.1333 23 25.8 23.8C26.4667 24.6 27.3667 25.3333 28.5 26C29.6333 26.6 30.9333 27.1333 32.4 27.6C33.8667 28 35.4 28.3333 37 28.6C40.6667 29.3333 43.9667 30.3 46.9 31.5C49.9 32.7 52.4667 34.1667 54.6 35.9C56.8 37.6333 58.4667 39.7 59.6 42.1C60.8 44.4333 61.4 47.1667 61.4 50.3C61.4 55.1667 60.2 59.3 57.8 62.7C55.4667 66.0333 52.2333 68.6 48.1 70.4C44.0333 72.1333 39.3333 73 34 73ZM89.3789 72V17H68.5789V2H127.679V17H106.379V72H89.3789ZM139.706 72V2H171.206C175.673 2 179.706 2.96666 183.306 4.9C186.973 6.83333 189.84 9.5 191.906 12.9C193.973 16.2333 195.006 20.0333 195.006 24.3C195.006 28.7 193.973 32.6667 191.906 36.2C189.84 39.6667 187.006 42.4 183.406 44.4C179.806 46.4 175.74 47.4 171.206 47.4H155.906V72H139.706ZM178.506 72L160.706 40.4L178.106 37.9L197.906 72H178.506ZM155.906 34.4H169.706C171.44 34.4 172.94 34.0333 174.206 33.3C175.54 32.5 176.54 31.4 177.206 30C177.94 28.6 178.306 27 178.306 25.2C178.306 23.4 177.906 21.8333 177.106 20.5C176.306 19.1 175.14 18.0333 173.606 17.3C172.14 16.5667 170.34 16.2 168.206 16.2H155.906V34.4ZM240.845 73C235.511 73 230.645 72.1 226.245 70.3C221.845 68.5 218.011 65.9667 214.745 62.7C211.478 59.4333 208.945 55.6 207.145 51.2C205.345 46.8 204.445 41.9667 204.445 36.7C204.445 31.4333 205.345 26.6 207.145 22.2C208.945 17.8 211.478 13.9667 214.745 10.7C218.011 7.43333 221.845 4.9 226.245 3.1C230.645 1.3 235.478 0.399998 240.745 0.399998C246.011 0.399998 250.845 1.3 255.245 3.1C259.645 4.9 263.478 7.43333 266.745 10.7C270.011 13.9667 272.511 17.8 274.245 22.2C276.045 26.6 276.945 31.4333 276.945 36.7C276.945 41.9 276.045 46.7333 274.245 51.2C272.511 55.6 270.011 59.4333 266.745 62.7C263.478 65.9667 259.645 68.5 255.245 70.3C250.845 72.1 246.045 73 240.845 73ZM240.745 57C243.478 57 245.978 56.5 248.245 55.5C250.578 54.5 252.578 53.1 254.245 51.3C255.978 49.4333 257.311 47.2667 258.245 44.8C259.178 42.3333 259.645 39.6333 259.645 36.7C259.645 33.7667 259.178 31.0667 258.245 28.6C257.311 26.1333 255.978 24 254.245 22.2C252.578 20.3333 250.578 18.9 248.245 17.9C245.978 16.9 243.478 16.4 240.745 16.4C238.011 16.4 235.478 16.9 233.145 17.9C230.878 18.9 228.878 20.3333 227.145 22.2C225.411 24 224.078 26.1333 223.145 28.6C222.278 31.0667 221.845 33.7667 221.845 36.7C221.845 39.6333 222.278 42.3667 223.145 44.9C224.078 47.3667 225.411 49.5 227.145 51.3C228.878 53.1 230.878 54.5 233.145 55.5C235.478 56.5 238.011 57 240.745 57ZM290.097 72V2H305.297L341.997 52L338.697 51.5C338.364 49.3 338.097 47.2 337.897 45.2C337.697 43.2 337.497 41.2333 337.297 39.3C337.164 37.3667 337.03 35.4 336.897 33.4C336.83 31.4 336.764 29.2333 336.697 26.9C336.697 24.5667 336.697 22.0333 336.697 19.3V2H353.197V72H337.797L299.497 20.4L304.597 21.1C304.93 24.3 305.197 27.0333 305.397 29.3C305.664 31.5 305.864 33.4667 305.997 35.2C306.197 36.9333 306.33 38.5 306.397 39.9C306.464 41.3 306.497 42.7 306.497 44.1C306.564 45.4333 306.597 46.9333 306.597 48.6V72H290.097ZM403.261 73C397.661 73 392.594 72.1 388.061 70.3C383.528 68.5 379.628 65.9667 376.361 62.7C373.094 59.4333 370.594 55.6 368.861 51.2C367.128 46.7333 366.261 41.9 366.261 36.7C366.261 31.5 367.161 26.7333 368.961 22.4C370.828 18 373.461 14.1667 376.861 10.9C380.261 7.63333 384.261 5.1 388.861 3.3C393.528 1.5 398.594 0.599995 404.061 0.599995C407.928 0.599995 411.561 1.09999 414.961 2.09999C418.428 3.1 421.561 4.46666 424.361 6.19999C427.161 7.93333 429.528 9.93333 431.461 12.2L421.161 23.1C419.494 21.5 417.761 20.1667 415.961 19.1C414.228 18.0333 412.361 17.2 410.361 16.6C408.361 15.9333 406.228 15.6 403.961 15.6C401.028 15.6 398.328 16.1333 395.861 17.2C393.461 18.2667 391.328 19.7667 389.461 21.7C387.661 23.5667 386.261 25.8 385.261 28.4C384.261 30.9333 383.761 33.7 383.761 36.7C383.761 39.7 384.294 42.5 385.361 45.1C386.428 47.7 387.894 49.9667 389.761 51.9C391.628 53.7667 393.828 55.2667 396.361 56.4C398.961 57.4667 401.728 58 404.661 58C406.728 58 408.661 57.6667 410.461 57C412.328 56.3333 413.928 55.4333 415.261 54.3C416.594 53.1667 417.661 51.8333 418.461 50.3C419.261 48.7 419.661 47 419.661 45.2V42.6L421.861 46H402.561V32.7H435.461C435.594 33.4333 435.694 34.4333 435.761 35.7C435.828 36.9667 435.861 38.2 435.861 39.4C435.928 40.6 435.961 41.5 435.961 42.1C435.961 46.6333 435.128 50.8 433.461 54.6C431.861 58.3333 429.594 61.5667 426.661 64.3C423.728 67.0333 420.261 69.1667 416.261 70.7C412.261 72.2333 407.928 73 403.261 73Z"/>
</mask>
<path d="M34 73C29.4 73 25.2333 72.4667 21.5 71.4C17.8333 70.2667 14.5667 68.6667 11.7 66.6C8.83333 64.4667 6.26667 61.9667 4 59.1L14.3 47.4C17.6333 51.8667 20.9667 54.8667 24.3 56.4C27.7 57.9333 31.2 58.7 34.8 58.7C36.6 58.7 38.2333 58.4667 39.7 58C41.1667 57.5333 42.3 56.8667 43.1 56C43.9 55.0667 44.3 53.9333 44.3 52.6C44.3 51.6 44.0333 50.7 43.5 49.9C43.0333 49.1 42.3667 48.4 41.5 47.8C40.6333 47.2 39.6 46.6667 38.4 46.2C37.2 45.6667 35.9333 45.2333 34.6 44.9C33.2667 44.5 31.9 44.1667 30.5 43.9C26.6333 43.0333 23.2667 41.9667 20.4 40.7C17.5333 39.4333 15.1333 37.9 13.2 36.1C11.3333 34.2333 9.93333 32.1333 9 29.8C8.06667 27.4 7.6 24.7333 7.6 21.8C7.6 18.6667 8.3 15.8 9.7 13.2C11.1667 10.5333 13.1 8.26666 15.5 6.4C17.9667 4.46666 20.8 2.99999 24 2C27.2 0.93333 30.5333 0.399998 34 0.399998C38.6 0.399998 42.5333 0.899997 45.8 1.9C49.1333 2.83333 51.9667 4.2 54.3 6C56.7 7.8 58.7333 9.96666 60.4 12.5L49.9 22.6C48.5 20.8667 46.9667 19.4333 45.3 18.3C43.7 17.1667 41.9667 16.3 40.1 15.7C38.3 15.1 36.4333 14.8 34.5 14.8C32.5 14.8 30.7667 15.0667 29.3 15.6C27.9 16.0667 26.8 16.7667 26 17.7C25.2 18.5667 24.8 19.6333 24.8 20.9C24.8 22.0333 25.1333 23 25.8 23.8C26.4667 24.6 27.3667 25.3333 28.5 26C29.6333 26.6 30.9333 27.1333 32.4 27.6C33.8667 28 35.4 28.3333 37 28.6C40.6667 29.3333 43.9667 30.3 46.9 31.5C49.9 32.7 52.4667 34.1667 54.6 35.9C56.8 37.6333 58.4667 39.7 59.6 42.1C60.8 44.4333 61.4 47.1667 61.4 50.3C61.4 55.1667 60.2 59.3 57.8 62.7C55.4667 66.0333 52.2333 68.6 48.1 70.4C44.0333 72.1333 39.3333 73 34 73ZM89.3789 72V17H68.5789V2H127.679V17H106.379V72H89.3789ZM139.706 72V2H171.206C175.673 2 179.706 2.96666 183.306 4.9C186.973 6.83333 189.84 9.5 191.906 12.9C193.973 16.2333 195.006 20.0333 195.006 24.3C195.006 28.7 193.973 32.6667 191.906 36.2C189.84 39.6667 187.006 42.4 183.406 44.4C179.806 46.4 175.74 47.4 171.206 47.4H155.906V72H139.706ZM178.506 72L160.706 40.4L178.106 37.9L197.906 72H178.506ZM155.906 34.4H169.706C171.44 34.4 172.94 34.0333 174.206 33.3C175.54 32.5 176.54 31.4 177.206 30C177.94 28.6 178.306 27 178.306 25.2C178.306 23.4 177.906 21.8333 177.106 20.5C176.306 19.1 175.14 18.0333 173.606 17.3C172.14 16.5667 170.34 16.2 168.206 16.2H155.906V34.4ZM240.845 73C235.511 73 230.645 72.1 226.245 70.3C221.845 68.5 218.011 65.9667 214.745 62.7C211.478 59.4333 208.945 55.6 207.145 51.2C205.345 46.8 204.445 41.9667 204.445 36.7C204.445 31.4333 205.345 26.6 207.145 22.2C208.945 17.8 211.478 13.9667 214.745 10.7C218.011 7.43333 221.845 4.9 226.245 3.1C230.645 1.3 235.478 0.399998 240.745 0.399998C246.011 0.399998 250.845 1.3 255.245 3.1C259.645 4.9 263.478 7.43333 266.745 10.7C270.011 13.9667 272.511 17.8 274.245 22.2C276.045 26.6 276.945 31.4333 276.945 36.7C276.945 41.9 276.045 46.7333 274.245 51.2C272.511 55.6 270.011 59.4333 266.745 62.7C263.478 65.9667 259.645 68.5 255.245 70.3C250.845 72.1 246.045 73 240.845 73ZM240.745 57C243.478 57 245.978 56.5 248.245 55.5C250.578 54.5 252.578 53.1 254.245 51.3C255.978 49.4333 257.311 47.2667 258.245 44.8C259.178 42.3333 259.645 39.6333 259.645 36.7C259.645 33.7667 259.178 31.0667 258.245 28.6C257.311 26.1333 255.978 24 254.245 22.2C252.578 20.3333 250.578 18.9 248.245 17.9C245.978 16.9 243.478 16.4 240.745 16.4C238.011 16.4 235.478 16.9 233.145 17.9C230.878 18.9 228.878 20.3333 227.145 22.2C225.411 24 224.078 26.1333 223.145 28.6C222.278 31.0667 221.845 33.7667 221.845 36.7C221.845 39.6333 222.278 42.3667 223.145 44.9C224.078 47.3667 225.411 49.5 227.145 51.3C228.878 53.1 230.878 54.5 233.145 55.5C235.478 56.5 238.011 57 240.745 57ZM290.097 72V2H305.297L341.997 52L338.697 51.5C338.364 49.3 338.097 47.2 337.897 45.2C337.697 43.2 337.497 41.2333 337.297 39.3C337.164 37.3667 337.03 35.4 336.897 33.4C336.83 31.4 336.764 29.2333 336.697 26.9C336.697 24.5667 336.697 22.0333 336.697 19.3V2H353.197V72H337.797L299.497 20.4L304.597 21.1C304.93 24.3 305.197 27.0333 305.397 29.3C305.664 31.5 305.864 33.4667 305.997 35.2C306.197 36.9333 306.33 38.5 306.397 39.9C306.464 41.3 306.497 42.7 306.497 44.1C306.564 45.4333 306.597 46.9333 306.597 48.6V72H290.097ZM403.261 73C397.661 73 392.594 72.1 388.061 70.3C383.528 68.5 379.628 65.9667 376.361 62.7C373.094 59.4333 370.594 55.6 368.861 51.2C367.128 46.7333 366.261 41.9 366.261 36.7C366.261 31.5 367.161 26.7333 368.961 22.4C370.828 18 373.461 14.1667 376.861 10.9C380.261 7.63333 384.261 5.1 388.861 3.3C393.528 1.5 398.594 0.599995 404.061 0.599995C407.928 0.599995 411.561 1.09999 414.961 2.09999C418.428 3.1 421.561 4.46666 424.361 6.19999C427.161 7.93333 429.528 9.93333 431.461 12.2L421.161 23.1C419.494 21.5 417.761 20.1667 415.961 19.1C414.228 18.0333 412.361 17.2 410.361 16.6C408.361 15.9333 406.228 15.6 403.961 15.6C401.028 15.6 398.328 16.1333 395.861 17.2C393.461 18.2667 391.328 19.7667 389.461 21.7C387.661 23.5667 386.261 25.8 385.261 28.4C384.261 30.9333 383.761 33.7 383.761 36.7C383.761 39.7 384.294 42.5 385.361 45.1C386.428 47.7 387.894 49.9667 389.761 51.9C391.628 53.7667 393.828 55.2667 396.361 56.4C398.961 57.4667 401.728 58 404.661 58C406.728 58 408.661 57.6667 410.461 57C412.328 56.3333 413.928 55.4333 415.261 54.3C416.594 53.1667 417.661 51.8333 418.461 50.3C419.261 48.7 419.661 47 419.661 45.2V42.6L421.861 46H402.561V32.7H435.461C435.594 33.4333 435.694 34.4333 435.761 35.7C435.828 36.9667 435.861 38.2 435.861 39.4C435.928 40.6 435.961 41.5 435.961 42.1C435.961 46.6333 435.128 50.8 433.461 54.6C431.861 58.3333 429.594 61.5667 426.661 64.3C423.728 67.0333 420.261 69.1667 416.261 70.7C412.261 72.2333 407.928 73 403.261 73Z" fill="#CB011B"/>
<path d="M21.5 71.4L20.9094 73.3108L20.9299 73.3171L20.9506 73.3231L21.5 71.4ZM11.7 66.6L10.506 68.2045L10.5181 68.2135L10.5304 68.2224L11.7 66.6ZM4 59.1L2.49883 57.7785L1.39596 59.0312L2.43117 60.3405L4 59.1ZM14.3 47.4L15.9029 46.2038L14.4281 44.2277L12.7988 46.0785L14.3 47.4ZM24.3 56.4L23.4642 58.217L23.471 58.2201L23.4778 58.2232L24.3 56.4ZM39.7 58L39.0936 56.0941L39.7 58ZM43.1 56L44.5696 57.3566L44.5946 57.3295L44.6185 57.3016L43.1 56ZM43.5 49.9L41.7724 50.9077L41.8027 50.9595L41.8359 51.0094L43.5 49.9ZM41.5 47.8L40.3616 49.4444L41.5 47.8ZM38.4 46.2L37.5877 48.0276L37.631 48.0469L37.6751 48.064L38.4 46.2ZM34.6 44.9L34.0253 46.8157L34.0698 46.829L34.1149 46.8403L34.6 44.9ZM30.5 43.9L30.0626 45.8516L30.0941 45.8586L30.1258 45.8647L30.5 43.9ZM20.4 40.7L21.2083 38.8706L21.2083 38.8706L20.4 40.7ZM13.2 36.1L11.7858 37.5142L11.811 37.5395L11.8372 37.5638L13.2 36.1ZM9 29.8L7.13599 30.5249L7.13948 30.5339L7.14305 30.5428L9 29.8ZM9.7 13.2L7.94757 12.2362L7.94328 12.244L7.93906 12.2518L9.7 13.2ZM15.5 6.4L16.7279 7.97871L16.7338 7.97411L15.5 6.4ZM24 2L24.5965 3.90895L24.6146 3.90333L24.6325 3.89736L24 2ZM45.8 1.9L45.2146 3.8124L45.2376 3.81944L45.2607 3.82592L45.8 1.9ZM54.3 6L53.0784 7.58356L53.0891 7.59185L53.1 7.6L54.3 6ZM60.4 12.5L61.7865 13.9414L62.9843 12.7892L62.0708 11.4008L60.4 12.5ZM49.9 22.6L48.3441 23.8567L49.7146 25.5534L51.2865 24.0414L49.9 22.6ZM45.3 18.3L44.144 19.932L44.1596 19.9431L44.1754 19.9539L45.3 18.3ZM40.1 15.7L39.4675 17.5974L39.4777 17.6008L39.488 17.6041L40.1 15.7ZM29.3 15.6L29.9325 17.4974L29.9581 17.4888L29.9835 17.4796L29.3 15.6ZM26 17.7L27.4696 19.0566L27.4946 19.0295L27.5185 19.0016L26 17.7ZM25.8 23.8L24.2636 25.0804L24.2636 25.0804L25.8 23.8ZM28.5 26L27.486 27.7239L27.5246 27.7466L27.5642 27.7676L28.5 26ZM32.4 27.6L31.7936 29.5058L31.8334 29.5185L31.8738 29.5295L32.4 27.6ZM37 28.6L37.3922 26.6388L37.3606 26.6325L37.3288 26.6272L37 28.6ZM46.9 31.5L46.1427 33.3511L46.15 33.354L46.1572 33.3569L46.9 31.5ZM54.6 35.9L53.3388 37.4522L53.3505 37.4617L53.3623 37.471L54.6 35.9ZM59.6 42.1L57.7915 42.954L57.806 42.9846L57.8214 43.0147L59.6 42.1ZM57.8 62.7L56.1661 61.5466L56.1615 61.5531L57.8 62.7ZM48.1 70.4L48.8842 72.2398L48.8914 72.2368L48.8985 72.2337L48.1 70.4ZM34 71C29.5526 71 25.5747 70.4842 22.0494 69.477L20.9506 73.3231C24.8919 74.4492 29.2474 75 34 75V71ZM22.0906 69.4892C18.6135 68.4145 15.5457 66.9069 12.8696 64.9776L10.5304 68.2224C13.5876 70.4264 17.0531 72.1189 20.9094 73.3108L22.0906 69.4892ZM12.894 64.9955C10.1708 62.969 7.7295 60.5921 5.56883 57.8595L2.43117 60.3405C4.80384 63.3412 7.49582 65.9643 10.506 68.2045L12.894 64.9955ZM5.50117 60.4215L15.8012 48.7215L12.7988 46.0785L2.49883 57.7785L5.50117 60.4215ZM12.6971 48.5962C16.1352 53.2032 19.7099 56.49 23.4642 58.217L25.1358 54.583C22.2235 53.2433 19.1315 50.5301 15.9029 46.2038L12.6971 48.5962ZM23.4778 58.2232C27.1267 59.8688 30.9062 60.7 34.8 60.7V56.7C31.4938 56.7 28.2733 55.9979 25.1222 54.5768L23.4778 58.2232ZM34.8 60.7C36.7718 60.7 38.6137 60.4445 40.3064 59.9059L39.0936 56.0941C37.853 56.4889 36.4282 56.7 34.8 56.7V60.7ZM40.3064 59.9059C42.0055 59.3652 43.4732 58.5443 44.5696 57.3566L41.6304 54.6434C41.1268 55.189 40.3278 55.7014 39.0936 56.0941L40.3064 59.9059ZM44.6185 57.3016C45.7564 55.974 46.3 54.3672 46.3 52.6H42.3C42.3 53.4995 42.0436 54.1593 41.5815 54.6984L44.6185 57.3016ZM46.3 52.6C46.3 51.2219 45.9256 49.9328 45.1641 48.7906L41.8359 51.0094C42.1411 51.4672 42.3 51.9781 42.3 52.6H46.3ZM45.2276 48.8923C44.5943 47.8067 43.7124 46.8991 42.6384 46.1556L40.3616 49.4444C41.0209 49.9009 41.4723 50.3933 41.7724 50.9077L45.2276 48.8923ZM42.6384 46.1556C41.6183 45.4494 40.44 44.8474 39.1249 44.336L37.6751 48.064C38.76 48.4859 39.6483 48.9506 40.3616 49.4444L42.6384 46.1556ZM39.2123 44.3724C37.9019 43.79 36.5253 43.3198 35.0851 42.9597L34.1149 46.8403C35.3413 47.1469 36.4981 47.5434 37.5877 48.0276L39.2123 44.3724ZM35.1747 42.9843C33.7739 42.5641 32.3402 42.2146 30.8742 41.9353L30.1258 45.8647C31.4598 46.1188 32.7595 46.4359 34.0253 46.8157L35.1747 42.9843ZM30.9374 41.9484C27.1664 41.1032 23.9292 40.0729 21.2083 38.8706L19.5917 42.5294C22.6041 43.8605 26.1003 44.9635 30.0626 45.8516L30.9374 41.9484ZM21.2083 38.8706C18.5086 37.6777 16.3058 36.259 14.5628 34.6362L11.8372 37.5638C13.9609 39.541 16.5581 41.189 19.5917 42.5294L21.2083 38.8706ZM14.6142 34.6858C12.9292 33.0008 11.6847 31.1265 10.857 29.0572L7.14305 30.5428C8.18202 33.1402 9.73744 35.4659 11.7858 37.5142L14.6142 34.6858ZM10.864 29.0751C10.0322 26.9361 9.6 24.5195 9.6 21.8H5.6C5.6 24.9471 6.10117 27.8639 7.13599 30.5249L10.864 29.0751ZM9.6 21.8C9.6 18.9768 10.2275 16.439 11.4609 14.1482L7.93906 12.2518C6.37254 15.161 5.6 18.3565 5.6 21.8H9.6ZM11.4524 14.1638C12.788 11.7355 14.543 9.67808 16.7279 7.9787L14.2721 4.82129C11.657 6.85525 9.54529 9.33121 7.94757 12.2362L11.4524 14.1638ZM16.7338 7.97411C18.9971 6.20015 21.6112 4.84187 24.5965 3.90895L23.4035 0.0910358C19.9888 1.15812 16.9362 2.73318 14.2662 4.82589L16.7338 7.97411ZM24.6325 3.89736C27.6229 2.90056 30.7423 2.4 34 2.4V-1.6C30.3244 -1.6 26.7771 -1.0339 23.3675 0.102629L24.6325 3.89736ZM34 2.4C38.4656 2.4 42.1904 2.88662 45.2146 3.8124L46.3854 -0.0124035C42.8763 -1.08663 38.7345 -1.6 34 -1.6V2.4ZM45.2607 3.82592C48.3892 4.7019 50.9806 5.9653 53.0784 7.58356L55.5216 4.41644C52.9527 2.43469 49.8774 0.964758 46.3393 -0.0259323L45.2607 3.82592ZM53.1 7.6C55.3133 9.25998 57.188 11.2566 58.7292 13.5992L62.0708 11.4008C60.2787 8.67671 58.0867 6.34002 55.5 4.4L53.1 7.6ZM59.0135 11.0586L48.5135 21.1586L51.2865 24.0414L61.7865 13.9414L59.0135 11.0586ZM51.4559 21.3433C49.9453 19.4731 48.2699 17.9009 46.4246 16.6461L44.1754 19.9539C45.6634 20.9657 47.0547 22.2602 48.3441 23.8567L51.4559 21.3433ZM46.456 16.6679C44.6896 15.4167 42.7728 14.4583 40.712 13.7959L39.488 17.6041C41.1605 18.1417 42.7104 18.9166 44.144 19.932L46.456 16.6679ZM40.7325 13.8026C38.7246 13.1334 36.6442 12.8 34.5 12.8V16.8C36.2225 16.8 37.8754 17.0666 39.4675 17.5974L40.7325 13.8026ZM34.5 12.8C32.3294 12.8 30.3541 13.0885 28.6165 13.7204L29.9835 17.4796C31.1792 17.0448 32.6706 16.8 34.5 16.8V12.8ZM28.6675 13.7026C26.9929 14.2608 25.5608 15.1393 24.4815 16.3984L27.5185 19.0016C28.0392 18.3941 28.8071 17.8725 29.9325 17.4974L28.6675 13.7026ZM24.5304 16.3434C23.3628 17.6084 22.8 19.1712 22.8 20.9H26.8C26.8 20.0955 27.0372 19.525 27.4696 19.0566L24.5304 16.3434ZM22.8 20.9C22.8 22.4569 23.2702 23.8883 24.2636 25.0804L27.3364 22.5196C26.9965 22.1117 26.8 21.6098 26.8 20.9H22.8ZM24.2636 25.0804C25.1105 26.0967 26.2041 26.9698 27.486 27.7239L29.514 24.2761C28.5292 23.6968 27.8228 23.1033 27.3364 22.5196L24.2636 25.0804ZM27.5642 27.7676C28.8214 28.4332 30.235 29.0099 31.7936 29.5058L33.0064 25.6941C31.6317 25.2567 30.4452 24.7668 29.4358 24.2324L27.5642 27.7676ZM31.8738 29.5295C33.4096 29.9484 35.0091 30.2958 36.6712 30.5728L37.3288 26.6272C35.7909 26.3709 34.3237 26.0516 32.9262 25.6705L31.8738 29.5295ZM36.6078 30.5612C40.1711 31.2738 43.3461 32.207 46.1427 33.3511L47.6573 29.6489C44.5873 28.393 41.1622 27.3928 37.3922 26.6388L36.6078 30.5612ZM46.1572 33.3569C49.002 34.4949 51.3866 35.866 53.3388 37.4522L55.8612 34.3478C53.5468 32.4673 50.798 30.9051 47.6428 29.643L46.1572 33.3569ZM53.3623 37.471C55.3329 39.0236 56.7977 40.8494 57.7915 42.954L61.4085 41.246C60.1357 38.5506 58.2671 36.2431 55.8377 34.329L53.3623 37.471ZM57.8214 43.0147C58.8502 45.0151 59.4 47.4235 59.4 50.3H63.4C63.4 46.9099 62.7498 43.8515 61.3786 41.1853L57.8214 43.0147ZM59.4 50.3C59.4 54.8257 58.2895 58.5385 56.1661 61.5466L59.4339 63.8534C62.1105 60.0615 63.4 55.5077 63.4 50.3H59.4ZM56.1615 61.5531C54.0619 64.5526 51.1345 66.8971 47.3015 68.5663L48.8985 72.2337C53.3322 70.3029 56.8714 67.5141 59.4385 63.8469L56.1615 61.5531ZM47.3158 68.5602C43.5427 70.1684 39.1182 71 34 71V75C39.5484 75 44.524 74.0983 48.8842 72.2398L47.3158 68.5602ZM89.3789 72H87.3789V74H89.3789V72ZM89.3789 17H91.3789V15H89.3789V17ZM68.5789 17H66.5789V19H68.5789V17ZM68.5789 2V-3.8147e-06H66.5789V2H68.5789ZM127.679 2H129.679V-3.8147e-06H127.679V2ZM127.679 17V19H129.679V17H127.679ZM106.379 17V15H104.379V17H106.379ZM106.379 72V74H108.379V72H106.379ZM91.3789 72V17H87.3789V72H91.3789ZM89.3789 15H68.5789V19H89.3789V15ZM70.5789 17V2H66.5789V17H70.5789ZM68.5789 4H127.679V-3.8147e-06H68.5789V4ZM125.679 2V17H129.679V2H125.679ZM127.679 15H106.379V19H127.679V15ZM104.379 17V72H108.379V17H104.379ZM106.379 70H89.3789V74H106.379V70ZM139.706 72H137.706V74H139.706V72ZM139.706 2V-3.8147e-06H137.706V2H139.706ZM183.306 4.9L182.36 6.66199L182.367 6.66559L182.373 6.66914L183.306 4.9ZM191.906 12.9L190.197 13.9388L190.202 13.9464L190.206 13.9539L191.906 12.9ZM191.906 36.2L193.624 37.2241L193.628 37.217L193.633 37.2098L191.906 36.2ZM183.406 44.4L182.435 42.6517L183.406 44.4ZM155.906 47.4V45.4H153.906V47.4H155.906ZM155.906 72V74H157.906V72H155.906ZM178.506 72L176.764 72.9816L177.337 74H178.506V72ZM160.706 40.4L160.422 38.4203L157.53 38.8359L158.964 41.3816L160.706 40.4ZM178.106 37.9L179.836 36.8957L179.158 35.7283L177.822 35.9203L178.106 37.9ZM197.906 72V74H201.38L199.636 70.9957L197.906 72ZM155.906 34.4H153.906V36.4H155.906V34.4ZM174.206 33.3L175.208 35.0308L175.222 35.023L175.235 35.015L174.206 33.3ZM177.206 30L175.435 29.072L175.417 29.1057L175.401 29.1401L177.206 30ZM177.106 20.5L175.37 21.4923L175.38 21.5107L175.391 21.529L177.106 20.5ZM173.606 17.3L172.712 19.0888L172.728 19.0967L172.743 19.1043L173.606 17.3ZM155.906 16.2V14.2H153.906V16.2H155.906ZM141.706 72V2H137.706V72H141.706ZM139.706 4H171.206V-3.8147e-06H139.706V4ZM171.206 4C175.374 4 179.077 4.89912 182.36 6.66199L184.253 3.13801C180.335 1.03421 175.972 -3.8147e-06 171.206 -3.8147e-06V4ZM182.373 6.66914C185.734 8.4411 188.327 10.8612 190.197 13.9388L193.615 11.8612C191.353 8.13876 188.212 5.22556 184.239 3.13086L182.373 6.66914ZM190.206 13.9539C192.06 16.9431 193.006 20.3718 193.006 24.3H197.006C197.006 19.6949 195.886 15.5236 193.606 11.8461L190.206 13.9539ZM193.006 24.3C193.006 28.3726 192.054 31.9862 190.18 35.1902L193.633 37.2098C195.892 33.3472 197.006 29.0274 197.006 24.3H193.006ZM190.188 35.1759C188.306 38.3331 185.733 40.8193 182.435 42.6517L184.378 46.1483C188.279 43.9807 191.373 41.0002 193.624 37.2241L190.188 35.1759ZM182.435 42.6517C179.161 44.4704 175.435 45.4 171.206 45.4V49.4C176.044 49.4 180.451 48.3296 184.378 46.1483L182.435 42.6517ZM171.206 45.4H155.906V49.4H171.206V45.4ZM153.906 47.4V72H157.906V47.4H153.906ZM155.906 70H139.706V74H155.906V70ZM180.249 71.0184L162.449 39.4184L158.964 41.3816L176.764 72.9816L180.249 71.0184ZM160.991 42.3797L178.391 39.8797L177.822 35.9203L160.422 38.4203L160.991 42.3797ZM176.377 38.9043L196.177 73.0043L199.636 70.9957L179.836 36.8957L176.377 38.9043ZM197.906 70H178.506V74H197.906V70ZM155.906 36.4H169.706V32.4H155.906V36.4ZM169.706 36.4C171.726 36.4 173.585 35.9705 175.208 35.0308L173.204 31.5691C172.294 32.0962 171.153 32.4 169.706 32.4V36.4ZM175.235 35.015C176.905 34.0131 178.176 32.6161 179.012 30.8599L175.401 29.1401C174.904 30.1838 174.174 30.9868 173.177 31.585L175.235 35.015ZM178.978 30.928C179.881 29.2041 180.306 27.2779 180.306 25.2H176.306C176.306 26.7221 175.998 27.9959 175.435 29.072L178.978 30.928ZM180.306 25.2C180.306 23.0955 179.835 21.1614 178.821 19.471L175.391 21.529C175.977 22.5052 176.306 23.7045 176.306 25.2H180.306ZM178.843 19.5077C177.83 17.7348 176.348 16.3945 174.469 15.4957L172.743 19.1043C173.931 19.6721 174.783 20.4652 175.37 21.4923L178.843 19.5077ZM174.501 15.5111C172.686 14.6036 170.56 14.2 168.206 14.2V18.2C170.119 18.2 171.594 18.5297 172.712 19.0888L174.501 15.5111ZM168.206 14.2H155.906V18.2H168.206V14.2ZM153.906 16.2V34.4H157.906V16.2H153.906ZM226.245 70.3L225.487 72.1511L226.245 70.3ZM214.745 62.7L216.159 61.2858L214.745 62.7ZM207.145 51.2L205.293 51.9573L207.145 51.2ZM207.145 22.2L205.293 21.4427V21.4427L207.145 22.2ZM214.745 10.7L216.159 12.1142L214.745 10.7ZM226.245 3.1L227.002 4.95109L226.245 3.1ZM255.245 3.1L254.487 4.95109H254.487L255.245 3.1ZM266.745 10.7L265.33 12.1142L266.745 10.7ZM274.245 22.2L272.384 22.933L272.388 22.9452L272.393 22.9573L274.245 22.2ZM274.245 51.2L272.389 50.4524L272.387 50.4597L272.384 50.4669L274.245 51.2ZM266.745 62.7L265.33 61.2858L266.745 62.7ZM255.245 70.3L254.487 68.4489L255.245 70.3ZM248.245 55.5L247.457 53.6617L247.447 53.6659L247.437 53.6702L248.245 55.5ZM254.245 51.3L252.779 49.9391L252.777 49.9412L254.245 51.3ZM254.245 22.2L252.753 23.532L252.778 23.5601L252.804 23.5873L254.245 22.2ZM248.245 17.9L247.437 19.7298L247.447 19.7341L247.457 19.7383L248.245 17.9ZM233.145 17.9L232.357 16.0617L232.347 16.0659L232.337 16.0702L233.145 17.9ZM227.145 22.2L228.585 23.5873L228.598 23.5742L228.61 23.5609L227.145 22.2ZM223.145 28.6L221.274 27.8922L221.266 27.9145L221.258 27.937L223.145 28.6ZM223.145 44.9L221.252 45.5474L221.263 45.5778L221.274 45.6078L223.145 44.9ZM227.145 51.3L228.585 49.9127L227.145 51.3ZM233.145 55.5L232.337 57.3298L232.347 57.3341L232.357 57.3383L233.145 55.5ZM240.845 71C235.739 71 231.134 70.1393 227.002 68.4489L225.487 72.1511C230.155 74.0607 235.283 75 240.845 75V71ZM227.002 68.4489C222.84 66.7465 219.232 64.3592 216.159 61.2858L213.33 64.1142C216.79 67.5742 220.849 70.2535 225.487 72.1511L227.002 68.4489ZM216.159 61.2858C213.085 58.2124 210.698 54.6042 208.996 50.4427L205.293 51.9573C207.191 56.5958 209.87 60.6542 213.33 64.1142L216.159 61.2858ZM208.996 50.4427C207.304 46.3078 206.445 41.735 206.445 36.7H202.445C202.445 42.1983 203.385 47.2922 205.293 51.9573L208.996 50.4427ZM206.445 36.7C206.445 31.665 207.304 27.0922 208.996 22.9573L205.293 21.4427C203.385 26.1078 202.445 31.2017 202.445 36.7H206.445ZM208.996 22.9573C210.698 18.7958 213.085 15.1876 216.159 12.1142L213.33 9.28578C209.87 12.7458 207.191 16.8042 205.293 21.4427L208.996 22.9573ZM216.159 12.1142C219.232 9.04084 222.84 6.65351 227.002 4.95109L225.487 1.24891C220.849 3.14648 216.79 5.82581 213.33 9.28578L216.159 12.1142ZM227.002 4.95109C231.137 3.25951 235.71 2.4 240.745 2.4V-1.6C235.246 -1.6 230.152 -0.659513 225.487 1.24891L227.002 4.95109ZM240.745 2.4C245.78 2.4 250.352 3.25951 254.487 4.95109L256.002 1.24891C251.337 -0.659513 246.243 -1.6 240.745 -1.6V2.4ZM254.487 4.95109C258.649 6.65351 262.257 9.04084 265.33 12.1142L268.159 9.28579C264.699 5.82581 260.64 3.14648 256.002 1.24891L254.487 4.95109ZM265.33 12.1142C268.398 15.1822 270.749 18.7821 272.384 22.933L276.105 21.4669C274.274 16.8179 271.624 12.7511 268.159 9.28578L265.33 12.1142ZM272.393 22.9573C274.085 27.0922 274.945 31.665 274.945 36.7H278.945C278.945 31.2017 278.004 26.1078 276.096 21.4427L272.393 22.9573ZM274.945 36.7C274.945 41.6644 274.086 46.2418 272.389 50.4524L276.1 51.9475C278.003 47.2249 278.945 42.1356 278.945 36.7H274.945ZM272.384 50.4669C270.749 54.6179 268.398 58.2178 265.33 61.2858L268.159 64.1142C271.624 60.6489 274.274 56.5821 276.105 51.9331L272.384 50.4669ZM265.33 61.2858C262.257 64.3592 258.649 66.7465 254.487 68.4489L256.002 72.1511C260.64 70.2535 264.699 67.5742 268.159 64.1142L265.33 61.2858ZM254.487 68.4489C250.349 70.1417 245.809 71 240.845 71V75C246.28 75 251.34 74.0583 256.002 72.1511L254.487 68.4489ZM240.745 59C243.727 59 246.506 58.4531 249.052 57.3298L247.437 53.6702C245.45 54.5468 243.229 55 240.745 55V59ZM249.032 57.3383C251.614 56.2318 253.848 54.6717 255.712 52.6588L252.777 49.9412C251.307 51.5283 249.542 52.7682 247.457 53.6617L249.032 57.3383ZM255.71 52.6609C257.626 50.598 259.094 48.2076 260.115 45.5078L256.374 44.0922C255.529 46.3258 254.33 48.2686 252.779 49.9391L255.71 52.6609ZM260.115 45.5078C261.143 42.791 261.645 39.8481 261.645 36.7H257.645C257.645 39.4186 257.213 41.8757 256.374 44.0922L260.115 45.5078ZM261.645 36.7C261.645 33.5519 261.143 30.609 260.115 27.8922L256.374 29.3078C257.213 31.5243 257.645 33.9814 257.645 36.7H261.645ZM260.115 27.8922C259.091 25.1866 257.617 22.8185 255.685 20.8127L252.804 23.5873C254.339 25.1815 255.531 27.0801 256.374 29.3078L260.115 27.8922ZM255.736 20.868C253.872 18.7799 251.631 17.1752 249.032 16.0617L247.457 19.7383C249.525 20.6248 251.284 21.8868 252.753 23.532L255.736 20.868ZM249.052 16.0702C246.506 14.9468 243.727 14.4 240.745 14.4V18.4C243.229 18.4 245.45 18.8531 247.437 19.7298L249.052 16.0702ZM240.745 14.4C237.761 14.4 234.958 14.947 232.357 16.0617L233.932 19.7383C235.998 18.853 238.261 18.4 240.745 18.4V14.4ZM232.337 16.0702C229.814 17.1832 227.592 18.7787 225.679 20.8391L228.61 23.5609C230.164 21.888 231.941 20.6168 233.952 19.7298L232.337 16.0702ZM225.704 20.8127C223.772 22.8185 222.298 25.1866 221.274 27.8922L225.015 29.3078C225.858 27.0801 227.05 25.1815 228.585 23.5873L225.704 20.8127ZM221.258 27.937C220.308 30.641 219.845 33.5682 219.845 36.7H223.845C223.845 33.9652 224.248 31.4923 225.031 29.263L221.258 27.937ZM219.845 36.7C219.845 39.8326 220.308 42.7867 221.252 45.5474L225.037 44.2526C224.248 41.9466 223.845 39.4341 223.845 36.7H219.845ZM221.274 45.6078C222.298 48.3134 223.772 50.6815 225.704 52.6873L228.585 49.9127C227.05 48.3185 225.858 46.4199 225.015 44.1922L221.274 45.6078ZM225.704 52.6873C227.616 54.6729 229.831 56.224 232.337 57.3298L233.952 53.6702C231.925 52.776 230.14 51.5271 228.585 49.9127L225.704 52.6873ZM232.357 57.3383C234.958 58.453 237.761 59 240.745 59V55C238.261 55 235.998 54.547 233.932 53.6617L232.357 57.3383ZM290.097 72H288.097V74H290.097V72ZM290.097 2V-3.8147e-06H288.097V2H290.097ZM305.297 2L306.909 0.816568L306.31 -3.8147e-06H305.297V2ZM341.997 52L341.697 53.9774L346.459 54.6989L343.609 50.8166L341.997 52ZM338.697 51.5L336.719 51.7996L336.94 53.2567L338.397 53.4774L338.697 51.5ZM337.897 45.2L339.887 45.001L337.897 45.2ZM337.297 39.3L335.302 39.4376L335.304 39.4717L335.307 39.5058L337.297 39.3ZM336.897 33.4L334.898 33.4666L334.899 33.4999L334.901 33.533L336.897 33.4ZM336.697 26.9H334.697V26.9286L334.698 26.9571L336.697 26.9ZM336.697 2V-3.8147e-06H334.697V2H336.697ZM353.197 2H355.197V-3.8147e-06H353.197V2ZM353.197 72V74H355.197V72H353.197ZM337.797 72L336.191 73.192L336.791 74H337.797V72ZM299.497 20.4L299.769 18.4186L295.055 17.7716L297.891 21.592L299.497 20.4ZM304.597 21.1L306.586 20.8928L306.424 19.332L304.869 19.1186L304.597 21.1ZM305.397 29.3L303.405 29.4758L303.407 29.5083L303.411 29.5407L305.397 29.3ZM305.997 35.2L304.003 35.3534L304.006 35.3914L304.01 35.4292L305.997 35.2ZM306.397 39.9L308.395 39.8049L306.397 39.9ZM306.497 44.1H304.497V44.15L304.499 44.1999L306.497 44.1ZM306.597 72V74H308.597V72H306.597ZM292.097 72V2H288.097V72H292.097ZM290.097 4H305.297V-3.8147e-06H290.097V4ZM303.685 3.18342L340.385 53.1834L343.609 50.8166L306.909 0.816568L303.685 3.18342ZM342.296 50.0226L338.996 49.5226L338.397 53.4774L341.697 53.9774L342.296 50.0226ZM340.674 51.2004C340.346 49.0303 340.083 46.964 339.887 45.001L335.907 45.399C336.111 47.436 336.382 49.5697 336.719 51.7996L340.674 51.2004ZM339.887 45.001C339.687 42.9988 339.487 41.0299 339.286 39.0942L335.307 39.5058C335.507 41.4368 335.707 43.4012 335.907 45.399L339.887 45.001ZM339.292 39.1624C339.159 37.2306 339.026 35.2655 338.892 33.267L334.901 33.533C335.035 35.5345 335.168 37.5027 335.302 39.4376L339.292 39.1624ZM338.896 33.3334C338.829 31.337 338.763 29.1735 338.696 26.8429L334.698 26.9571C334.764 29.2931 334.831 31.463 334.898 33.4666L338.896 33.3334ZM338.697 26.9C338.697 26.8954 338.697 26.8909 338.697 26.8863C338.697 26.8818 338.697 26.8772 338.697 26.8726C338.697 26.8681 338.697 26.8635 338.697 26.859C338.697 26.8544 338.697 26.8498 338.697 26.8453C338.697 26.8407 338.697 26.8361 338.697 26.8316C338.697 26.827 338.697 26.8224 338.697 26.8179C338.697 26.8133 338.697 26.8088 338.697 26.8042C338.697 26.7996 338.697 26.795 338.697 26.7905C338.697 26.7859 338.697 26.7813 338.697 26.7768C338.697 26.7722 338.697 26.7676 338.697 26.7631C338.697 26.7585 338.697 26.7539 338.697 26.7493C338.697 26.7448 338.697 26.7402 338.697 26.7356C338.697 26.731 338.697 26.7265 338.697 26.7219C338.697 26.7173 338.697 26.7127 338.697 26.7081C338.697 26.7036 338.697 26.699 338.697 26.6944C338.697 26.6898 338.697 26.6852 338.697 26.6807C338.697 26.6761 338.697 26.6715 338.697 26.6669C338.697 26.6623 338.697 26.6577 338.697 26.6532C338.697 26.6486 338.697 26.644 338.697 26.6394C338.697 26.6348 338.697 26.6302 338.697 26.6256C338.697 26.6211 338.697 26.6165 338.697 26.6119C338.697 26.6073 338.697 26.6027 338.697 26.5981C338.697 26.5935 338.697 26.5889 338.697 26.5843C338.697 26.5797 338.697 26.5751 338.697 26.5706C338.697 26.566 338.697 26.5614 338.697 26.5568C338.697 26.5522 338.697 26.5476 338.697 26.543C338.697 26.5384 338.697 26.5338 338.697 26.5292C338.697 26.5246 338.697 26.52 338.697 26.5154C338.697 26.5108 338.697 26.5062 338.697 26.5016C338.697 26.497 338.697 26.4924 338.697 26.4878C338.697 26.4832 338.697 26.4786 338.697 26.474C338.697 26.4694 338.697 26.4648 338.697 26.4602C338.697 26.4555 338.697 26.4509 338.697 26.4463C338.697 26.4417 338.697 26.4371 338.697 26.4325C338.697 26.4279 338.697 26.4233 338.697 26.4187C338.697 26.4141 338.697 26.4095 338.697 26.4048C338.697 26.4002 338.697 26.3956 338.697 26.391C338.697 26.3864 338.697 26.3818 338.697 26.3772C338.697 26.3725 338.697 26.3679 338.697 26.3633C338.697 26.3587 338.697 26.3541 338.697 26.3495C338.697 26.3448 338.697 26.3402 338.697 26.3356C338.697 26.331 338.697 26.3264 338.697 26.3217C338.697 26.3171 338.697 26.3125 338.697 26.3079C338.697 26.3032 338.697 26.2986 338.697 26.294C338.697 26.2894 338.697 26.2848 338.697 26.2801C338.697 26.2755 338.697 26.2709 338.697 26.2662C338.697 26.2616 338.697 26.257 338.697 26.2524C338.697 26.2477 338.697 26.2431 338.697 26.2385C338.697 26.2338 338.697 26.2292 338.697 26.2246C338.697 26.2199 338.697 26.2153 338.697 26.2107C338.697 26.206 338.697 26.2014 338.697 26.1968C338.697 26.1921 338.697 26.1875 338.697 26.1829C338.697 26.1782 338.697 26.1736 338.697 26.169C338.697 26.1643 338.697 26.1597 338.697 26.155C338.697 26.1504 338.697 26.1458 338.697 26.1411C338.697 26.1365 338.697 26.1318 338.697 26.1272C338.697 26.1226 338.697 26.1179 338.697 26.1133C338.697 26.1086 338.697 26.104 338.697 26.0993C338.697 26.0947 338.697 26.09 338.697 26.0854C338.697 26.0807 338.697 26.0761 338.697 26.0714C338.697 26.0668 338.697 26.0621 338.697 26.0575C338.697 26.0528 338.697 26.0482 338.697 26.0435C338.697 26.0389 338.697 26.0342 338.697 26.0296C338.697 26.0249 338.697 26.0203 338.697 26.0156C338.697 26.011 338.697 26.0063 338.697 26.0017C338.697 25.997 338.697 25.9923 338.697 25.9877C338.697 25.983 338.697 25.9784 338.697 25.9737C338.697 25.969 338.697 25.9644 338.697 25.9597C338.697 25.9551 338.697 25.9504 338.697 25.9457C338.697 25.9411 338.697 25.9364 338.697 25.9318C338.697 25.9271 338.697 25.9224 338.697 25.9178C338.697 25.9131 338.697 25.9084 338.697 25.9038C338.697 25.8991 338.697 25.8944 338.697 25.8898C338.697 25.8851 338.697 25.8804 338.697 25.8757C338.697 25.8711 338.697 25.8664 338.697 25.8617C338.697 25.8571 338.697 25.8524 338.697 25.8477C338.697 25.843 338.697 25.8384 338.697 25.8337C338.697 25.829 338.697 25.8243 338.697 25.8197C338.697 25.815 338.697 25.8103 338.697 25.8056C338.697 25.801 338.697 25.7963 338.697 25.7916C338.697 25.7869 338.697 25.7822 338.697 25.7776C338.697 25.7729 338.697 25.7682 338.697 25.7635C338.697 25.7588 338.697 25.7541 338.697 25.7495C338.697 25.7448 338.697 25.7401 338.697 25.7354C338.697 25.7307 338.697 25.726 338.697 25.7214C338.697 25.7167 338.697 25.712 338.697 25.7073C338.697 25.7026 338.697 25.6979 338.697 25.6932C338.697 25.6885 338.697 25.6838 338.697 25.6791C338.697 25.6745 338.697 25.6698 338.697 25.6651C338.697 25.6604 338.697 25.6557 338.697 25.651C338.697 25.6463 338.697 25.6416 338.697 25.6369C338.697 25.6322 338.697 25.6275 338.697 25.6228C338.697 25.6181 338.697 25.6134 338.697 25.6087C338.697 25.604 338.697 25.5993 338.697 25.5946C338.697 25.5899 338.697 25.5852 338.697 25.5805C338.697 25.5758 338.697 25.5711 338.697 25.5664C338.697 25.5617 338.697 25.557 338.697 25.5523C338.697 25.5476 338.697 25.5429 338.697 25.5382C338.697 25.5335 338.697 25.5288 338.697 25.524C338.697 25.5193 338.697 25.5146 338.697 25.5099C338.697 25.5052 338.697 25.5005 338.697 25.4958C338.697 25.4911 338.697 25.4864 338.697 25.4817C338.697 25.4769 338.697 25.4722 338.697 25.4675C338.697 25.4628 338.697 25.4581 338.697 25.4534C338.697 25.4487 338.697 25.4439 338.697 25.4392C338.697 25.4345 338.697 25.4298 338.697 25.4251C338.697 25.4203 338.697 25.4156 338.697 25.4109C338.697 25.4062 338.697 25.4015 338.697 25.3967C338.697 25.392 338.697 25.3873 338.697 25.3826C338.697 25.3778 338.697 25.3731 338.697 25.3684C338.697 25.3637 338.697 25.3589 338.697 25.3542C338.697 25.3495 338.697 25.3448 338.697 25.34C338.697 25.3353 338.697 25.3306 338.697 25.3258C338.697 25.3211 338.697 25.3164 338.697 25.3117C338.697 25.3069 338.697 25.3022 338.697 25.2975C338.697 25.2927 338.697 25.288 338.697 25.2833C338.697 25.2785 338.697 25.2738 338.697 25.2691C338.697 25.2643 338.697 25.2596 338.697 25.2548C338.697 25.2501 338.697 25.2454 338.697 25.2406C338.697 25.2359 338.697 25.2312 338.697 25.2264C338.697 25.2217 338.697 25.2169 338.697 25.2122C338.697 25.2074 338.697 25.2027 338.697 25.198C338.697 25.1932 338.697 25.1885 338.697 25.1837C338.697 25.179 338.697 25.1742 338.697 25.1695C338.697 25.1647 338.697 25.16 338.697 25.1553C338.697 25.1505 338.697 25.1458 338.697 25.141C338.697 25.1363 338.697 25.1315 338.697 25.1268C338.697 25.122 338.697 25.1172 338.697 25.1125C338.697 25.1077 338.697 25.103 338.697 25.0982C338.697 25.0935 338.697 25.0887 338.697 25.084C338.697 25.0792 338.697 25.0745 338.697 25.0697C338.697 25.0649 338.697 25.0602 338.697 25.0554C338.697 25.0507 338.697 25.0459 338.697 25.0411C338.697 25.0364 338.697 25.0316 338.697 25.0269C338.697 25.0221 338.697 25.0173 338.697 25.0126C338.697 25.0078 338.697 25.0031 338.697 24.9983C338.697 24.9935 338.697 24.9888 338.697 24.984C338.697 24.9792 338.697 24.9745 338.697 24.9697C338.697 24.9649 338.697 24.9602 338.697 24.9554C338.697 24.9506 338.697 24.9458 338.697 24.9411C338.697 24.9363 338.697 24.9315 338.697 24.9268C338.697 24.922 338.697 24.9172 338.697 24.9124C338.697 24.9077 338.697 24.9029 338.697 24.8981C338.697 24.8933 338.697 24.8886 338.697 24.8838C338.697 24.879 338.697 24.8742 338.697 24.8695C338.697 24.8647 338.697 24.8599 338.697 24.8551C338.697 24.8503 338.697 24.8456 338.697 24.8408C338.697 24.836 338.697 24.8312 338.697 24.8264C338.697 24.8216 338.697 24.8169 338.697 24.8121C338.697 24.8073 338.697 24.8025 338.697 24.7977C338.697 24.7929 338.697 24.7881 338.697 24.7834C338.697 24.7786 338.697 24.7738 338.697 24.769C338.697 24.7642 338.697 24.7594 338.697 24.7546C338.697 24.7498 338.697 24.745 338.697 24.7402C338.697 24.7355 338.697 24.7307 338.697 24.7259C338.697 24.7211 338.697 24.7163 338.697 24.7115C338.697 24.7067 338.697 24.7019 338.697 24.6971C338.697 24.6923 338.697 24.6875 338.697 24.6827C338.697 24.6779 338.697 24.6731 338.697 24.6683C338.697 24.6635 338.697 24.6587 338.697 24.6539C338.697 24.6491 338.697 24.6443 338.697 24.6395C338.697 24.6347 338.697 24.6299 338.697 24.6251C338.697 24.6203 338.697 24.6155 338.697 24.6107C338.697 24.6059 338.697 24.6011 338.697 24.5962C338.697 24.5914 338.697 24.5866 338.697 24.5818C338.697 24.577 338.697 24.5722 338.697 24.5674C338.697 24.5626 338.697 24.5578 338.697 24.553C338.697 24.5481 338.697 24.5433 338.697 24.5385C338.697 24.5337 338.697 24.5289 338.697 24.5241C338.697 24.5193 338.697 24.5144 338.697 24.5096C338.697 24.5048 338.697 24.5 338.697 24.4952C338.697 24.4904 338.697 24.4855 338.697 24.4807C338.697 24.4759 338.697 24.4711 338.697 24.4663C338.697 24.4614 338.697 24.4566 338.697 24.4518C338.697 24.447 338.697 24.4421 338.697 24.4373C338.697 24.4325 338.697 24.4277 338.697 24.4228C338.697 24.418 338.697 24.4132 338.697 24.4084C338.697 24.4035 338.697 24.3987 338.697 24.3939C338.697 24.3891 338.697 24.3842 338.697 24.3794C338.697 24.3746 338.697 24.3697 338.697 24.3649C338.697 24.3601 338.697 24.3552 338.697 24.3504C338.697 24.3456 338.697 24.3407 338.697 24.3359C338.697 24.3311 338.697 24.3262 338.697 24.3214C338.697 24.3166 338.697 24.3117 338.697 24.3069C338.697 24.302 338.697 24.2972 338.697 24.2924C338.697 24.2875 338.697 24.2827 338.697 24.2778C338.697 24.273 338.697 24.2682 338.697 24.2633C338.697 24.2585 338.697 24.2536 338.697 24.2488C338.697 24.2439 338.697 24.2391 338.697 24.2343C338.697 24.2294 338.697 24.2246 338.697 24.2197C338.697 24.2149 338.697 24.21 338.697 24.2052C338.697 24.2003 338.697 24.1955 338.697 24.1906C338.697 24.1858 338.697 24.1809 338.697 24.1761C338.697 24.1712 338.697 24.1664 338.697 24.1615C338.697 24.1567 338.697 24.1518 338.697 24.1469C338.697 24.1421 338.697 24.1372 338.697 24.1324C338.697 24.1275 338.697 24.1227 338.697 24.1178C338.697 24.113 338.697 24.1081 338.697 24.1032C338.697 24.0984 338.697 24.0935 338.697 24.0887C338.697 24.0838 338.697 24.0789 338.697 24.0741C338.697 24.0692 338.697 24.0643 338.697 24.0595C338.697 24.0546 338.697 24.0498 338.697 24.0449C338.697 24.04 338.697 24.0352 338.697 24.0303C338.697 24.0254 338.697 24.0206 338.697 24.0157C338.697 24.0108 338.697 24.0059 338.697 24.0011C338.697 23.9962 338.697 23.9913 338.697 23.9865C338.697 23.9816 338.697 23.9767 338.697 23.9718C338.697 23.967 338.697 23.9621 338.697 23.9572C338.697 23.9524 338.697 23.9475 338.697 23.9426C338.697 23.9377 338.697 23.9328 338.697 23.928C338.697 23.9231 338.697 23.9182 338.697 23.9133C338.697 23.9085 338.697 23.9036 338.697 23.8987C338.697 23.8938 338.697 23.8889 338.697 23.884C338.697 23.8792 338.697 23.8743 338.697 23.8694C338.697 23.8645 338.697 23.8596 338.697 23.8547C338.697 23.8499 338.697 23.845 338.697 23.8401C338.697 23.8352 338.697 23.8303 338.697 23.8254C338.697 23.8205 338.697 23.8156 338.697 23.8108C338.697 23.8059 338.697 23.801 338.697 23.7961C338.697 23.7912 338.697 23.7863 338.697 23.7814C338.697 23.7765 338.697 23.7716 338.697 23.7667C338.697 23.7618 338.697 23.7569 338.697 23.752C338.697 23.7471 338.697 23.7422 338.697 23.7373C338.697 23.7325 338.697 23.7276 338.697 23.7227C338.697 23.7178 338.697 23.7129 338.697 23.708C338.697 23.7031 338.697 23.6982 338.697 23.6932C338.697 23.6883 338.697 23.6834 338.697 23.6785C338.697 23.6736 338.697 23.6687 338.697 23.6638C338.697 23.6589 338.697 23.654 338.697 23.6491C338.697 23.6442 338.697 23.6393 338.697 23.6344C338.697 23.6295 338.697 23.6246 338.697 23.6197C338.697 23.6147 338.697 23.6098 338.697 23.6049C338.697 23.6 338.697 23.5951 338.697 23.5902C338.697 23.5853 338.697 23.5804 338.697 23.5755C338.697 23.5705 338.697 23.5656 338.697 23.5607C338.697 23.5558 338.697 23.5509 338.697 23.546C338.697 23.541 338.697 23.5361 338.697 23.5312C338.697 23.5263 338.697 23.5214 338.697 23.5164C338.697 23.5115 338.697 23.5066 338.697 23.5017C338.697 23.4968 338.697 23.4918 338.697 23.4869C338.697 23.482 338.697 23.4771 338.697 23.4721C338.697 23.4672 338.697 23.4623 338.697 23.4574C338.697 23.4524 338.697 23.4475 338.697 23.4426C338.697 23.4377 338.697 23.4327 338.697 23.4278C338.697 23.4229 338.697 23.4179 338.697 23.413C338.697 23.4081 338.697 23.4031 338.697 23.3982C338.697 23.3933 338.697 23.3883 338.697 23.3834C338.697 23.3785 338.697 23.3735 338.697 23.3686C338.697 23.3637 338.697 23.3587 338.697 23.3538C338.697 23.3489 338.697 23.3439 338.697 23.339C338.697 23.334 338.697 23.3291 338.697 23.3242C338.697 23.3192 338.697 23.3143 338.697 23.3093C338.697 23.3044 338.697 23.2994 338.697 23.2945C338.697 23.2896 338.697 23.2846 338.697 23.2797C338.697 23.2747 338.697 23.2698 338.697 23.2648C338.697 23.2599 338.697 23.2549 338.697 23.25C338.697 23.245 338.697 23.2401 338.697 23.2351C338.697 23.2302 338.697 23.2253 338.697 23.2203C338.697 23.2154 338.697 23.2104 338.697 23.2054C338.697 23.2005 338.697 23.1955 338.697 23.1906C338.697 23.1856 338.697 23.1807 338.697 23.1757C338.697 23.1708 338.697 23.1658 338.697 23.1609C338.697 23.1559 338.697 23.1509 338.697 23.146C338.697 23.141 338.697 23.1361 338.697 23.1311C338.697 23.1261 338.697 23.1212 338.697 23.1162C338.697 23.1113 338.697 23.1063 338.697 23.1013C338.697 23.0964 338.697 23.0914 338.697 23.0864C338.697 23.0815 338.697 23.0765 338.697 23.0715C338.697 23.0666 338.697 23.0616 338.697 23.0566C338.697 23.0517 338.697 23.0467 338.697 23.0417C338.697 23.0368 338.697 23.0318 338.697 23.0268C338.697 23.0219 338.697 23.0169 338.697 23.0119C338.697 23.0069 338.697 23.002 338.697 22.997C338.697 22.992 338.697 22.987 338.697 22.9821C338.697 22.9771 338.697 22.9721 338.697 22.9671C338.697 22.9622 338.697 22.9572 338.697 22.9522C338.697 22.9472 338.697 22.9422 338.697 22.9373C338.697 22.9323 338.697 22.9273 338.697 22.9223C338.697 22.9173 338.697 22.9124 338.697 22.9074C338.697 22.9024 338.697 22.8974 338.697 22.8924C338.697 22.8874 338.697 22.8825 338.697 22.8775C338.697 22.8725 338.697 22.8675 338.697 22.8625C338.697 22.8575 338.697 22.8525 338.697 22.8475C338.697 22.8426 338.697 22.8376 338.697 22.8326C338.697 22.8276 338.697 22.8226 338.697 22.8176C338.697 22.8126 338.697 22.8076 338.697 22.8026C338.697 22.7976 338.697 22.7926 338.697 22.7876C338.697 22.7826 338.697 22.7776 338.697 22.7727C338.697 22.7677 338.697 22.7627 338.697 22.7577C338.697 22.7527 338.697 22.7477 338.697 22.7427C338.697 22.7377 338.697 22.7327 338.697 22.7277C338.697 22.7227 338.697 22.7177 338.697 22.7127C338.697 22.7077 338.697 22.7026 338.697 22.6976C338.697 22.6926 338.697 22.6876 338.697 22.6826C338.697 22.6776 338.697 22.6726 338.697 22.6676C338.697 22.6626 338.697 22.6576 338.697 22.6526C338.697 22.6476 338.697 22.6426 338.697 22.6376C338.697 22.6325 338.697 22.6275 338.697 22.6225C338.697 22.6175 338.697 22.6125 338.697 22.6075C338.697 22.6025 338.697 22.5975 338.697 22.5924C338.697 22.5874 338.697 22.5824 338.697 22.5774C338.697 22.5724 338.697 22.5674 338.697 22.5623C338.697 22.5573 338.697 22.5523 338.697 22.5473C338.697 22.5423 338.697 22.5372 338.697 22.5322C338.697 22.5272 338.697 22.5222 338.697 22.5172C338.697 22.5121 338.697 22.5071 338.697 22.5021C338.697 22.4971 338.697 22.492 338.697 22.487C338.697 22.482 338.697 22.477 338.697 22.4719C338.697 22.4669 338.697 22.4619 338.697 22.4568C338.697 22.4518 338.697 22.4468 338.697 22.4418C338.697 22.4367 338.697 22.4317 338.697 22.4267C338.697 22.4216 338.697 22.4166 338.697 22.4116C338.697 22.4065 338.697 22.4015 338.697 22.3965C338.697 22.3914 338.697 22.3864 338.697 22.3814C338.697 22.3763 338.697 22.3713 338.697 22.3662C338.697 22.3612 338.697 22.3562 338.697 22.3511C338.697 22.3461 338.697 22.3411 338.697 22.336C338.697 22.331 338.697 22.3259 338.697 22.3209C338.697 22.3158 338.697 22.3108 338.697 22.3058C338.697 22.3007 338.697 22.2957 338.697 22.2906C338.697 22.2856 338.697 22.2805 338.697 22.2755C338.697 22.2704 338.697 22.2654 338.697 22.2603C338.697 22.2553 338.697 22.2502 338.697 22.2452C338.697 22.2401 338.697 22.2351 338.697 22.23C338.697 22.225 338.697 22.2199 338.697 22.2149C338.697 22.2098 338.697 22.2048 338.697 22.1997C338.697 22.1947 338.697 22.1896 338.697 22.1846C338.697 22.1795 338.697 22.1744 338.697 22.1694C338.697 22.1643 338.697 22.1593 338.697 22.1542C338.697 22.1491 338.697 22.1441 338.697 22.139C338.697 22.134 338.697 22.1289 338.697 22.1238C338.697 22.1188 338.697 22.1137 338.697 22.1087C338.697 22.1036 338.697 22.0985 338.697 22.0935C338.697 22.0884 338.697 22.0833 338.697 22.0783C338.697 22.0732 338.697 22.0681 338.697 22.0631C338.697 22.058 338.697 22.0529 338.697 22.0478C338.697 22.0428 338.697 22.0377 338.697 22.0326C338.697 22.0276 338.697 22.0225 338.697 22.0174C338.697 22.0123 338.697 22.0073 338.697 22.0022C338.697 21.9971 338.697 21.9921 338.697 21.987C338.697 21.9819 338.697 21.9768 338.697 21.9717C338.697 21.9667 338.697 21.9616 338.697 21.9565C338.697 21.9514 338.697 21.9463 338.697 21.9413C338.697 21.9362 338.697 21.9311 338.697 21.926C338.697 21.9209 338.697 21.9159 338.697 21.9108C338.697 21.9057 338.697 21.9006 338.697 21.8955C338.697 21.8904 338.697 21.8853 338.697 21.8803C338.697 21.8752 338.697 21.8701 338.697 21.865C338.697 21.8599 338.697 21.8548 338.697 21.8497C338.697 21.8446 338.697 21.8396 338.697 21.8345C338.697 21.8294 338.697 21.8243 338.697 21.8192C338.697 21.8141 338.697 21.809 338.697 21.8039C338.697 21.7988 338.697 21.7937 338.697 21.7886C338.697 21.7835 338.697 21.7784 338.697 21.7733C338.697 21.7682 338.697 21.7631 338.697 21.758C338.697 21.7529 338.697 21.7478 338.697 21.7427C338.697 21.7376 338.697 21.7325 338.697 21.7274C338.697 21.7223 338.697 21.7172 338.697 21.7121C338.697 21.707 338.697 21.7019 338.697 21.6968C338.697 21.6917 338.697 21.6866 338.697 21.6815C338.697 21.6764 338.697 21.6713 338.697 21.6662C338.697 21.6611 338.697 21.656 338.697 21.6508C338.697 21.6457 338.697 21.6406 338.697 21.6355C338.697 21.6304 338.697 21.6253 338.697 21.6202C338.697 21.6151 338.697 21.61 338.697 21.6048C338.697 21.5997 338.697 21.5946 338.697 21.5895C338.697 21.5844 338.697 21.5793 338.697 21.5741C338.697 21.569 338.697 21.5639 338.697 21.5588C338.697 21.5537 338.697 21.5485 338.697 21.5434C338.697 21.5383 338.697 21.5332 338.697 21.5281C338.697 21.5229 338.697 21.5178 338.697 21.5127C338.697 21.5076 338.697 21.5024 338.697 21.4973C338.697 21.4922 338.697 21.4871 338.697 21.4819C338.697 21.4768 338.697 21.4717 338.697 21.4666C338.697 21.4614 338.697 21.4563 338.697 21.4512C338.697 21.446 338.697 21.4409 338.697 21.4358C338.697 21.4307 338.697 21.4255 338.697 21.4204C338.697 21.4153 338.697 21.4101 338.697 21.405C338.697 21.3999 338.697 21.3947 338.697 21.3896C338.697 21.3845 338.697 21.3793 338.697 21.3742C338.697 21.369 338.697 21.3639 338.697 21.3588C338.697 21.3536 338.697 21.3485 338.697 21.3433C338.697 21.3382 338.697 21.3331 338.697 21.3279C338.697 21.3228 338.697 21.3176 338.697 21.3125C338.697 21.3074 338.697 21.3022 338.697 21.2971C338.697 21.2919 338.697 21.2868 338.697 21.2816C338.697 21.2765 338.697 21.2713 338.697 21.2662C338.697 21.261 338.697 21.2559 338.697 21.2507C338.697 21.2456 338.697 21.2404 338.697 21.2353C338.697 21.2301 338.697 21.225 338.697 21.2198C338.697 21.2147 338.697 21.2095 338.697 21.2044C338.697 21.1992 338.697 21.1941 338.697 21.1889C338.697 21.1838 338.697 21.1786 338.697 21.1734C338.697 21.1683 338.697 21.1631 338.697 21.158C338.697 21.1528 338.697 21.1477 338.697 21.1425C338.697 21.1373 338.697 21.1322 338.697 21.127C338.697 21.1218 338.697 21.1167 338.697 21.1115C338.697 21.1064 338.697 21.1012 338.697 21.096C338.697 21.0909 338.697 21.0857 338.697 21.0805C338.697 21.0754 338.697 21.0702 338.697 21.065C338.697 21.0599 338.697 21.0547 338.697 21.0495C338.697 21.0444 338.697 21.0392 338.697 21.034C338.697 21.0289 338.697 21.0237 338.697 21.0185C338.697 21.0133 338.697 21.0082 338.697 21.003C338.697 20.9978 338.697 20.9926 338.697 20.9875C338.697 20.9823 338.697 20.9771 338.697 20.9719C338.697 20.9668 338.697 20.9616 338.697 20.9564C338.697 20.9512 338.697 20.946 338.697 20.9409C338.697 20.9357 338.697 20.9305 338.697 20.9253C338.697 20.9201 338.697 20.915 338.697 20.9098C338.697 20.9046 338.697 20.8994 338.697 20.8942C338.697 20.889 338.697 20.8839 338.697 20.8787C338.697 20.8735 338.697 20.8683 338.697 20.8631C338.697 20.8579 338.697 20.8527 338.697 20.8475C338.697 20.8424 338.697 20.8372 338.697 20.832C338.697 20.8268 338.697 20.8216 338.697 20.8164C338.697 20.8112 338.697 20.806 338.697 20.8008C338.697 20.7956 338.697 20.7904 338.697 20.7852C338.697 20.78 338.697 20.7749 338.697 20.7697C338.697 20.7645 338.697 20.7593 338.697 20.7541C338.697 20.7489 338.697 20.7437 338.697 20.7385C338.697 20.7333 338.697 20.7281 338.697 20.7229C338.697 20.7177 338.697 20.7125 338.697 20.7073C338.697 20.7021 338.697 20.6969 338.697 20.6917C338.697 20.6864 338.697 20.6812 338.697 20.676C338.697 20.6708 338.697 20.6656 338.697 20.6604C338.697 20.6552 338.697 20.65 338.697 20.6448C338.697 20.6396 338.697 20.6344 338.697 20.6292C338.697 20.624 338.697 20.6187 338.697 20.6135C338.697 20.6083 338.697 20.6031 338.697 20.5979C338.697 20.5927 338.697 20.5875 338.697 20.5822C338.697 20.577 338.697 20.5718 338.697 20.5666C338.697 20.5614 338.697 20.5562 338.697 20.5509C338.697 20.5457 338.697 20.5405 338.697 20.5353C338.697 20.5301 338.697 20.5249 338.697 20.5196C338.697 20.5144 338.697 20.5092 338.697 20.504C338.697 20.4987 338.697 20.4935 338.697 20.4883C338.697 20.4831 338.697 20.4778 338.697 20.4726C338.697 20.4674 338.697 20.4622 338.697 20.4569C338.697 20.4517 338.697 20.4465 338.697 20.4413C338.697 20.436 338.697 20.4308 338.697 20.4256C338.697 20.4203 338.697 20.4151 338.697 20.4099C338.697 20.4046 338.697 20.3994 338.697 20.3942C338.697 20.3889 338.697 20.3837 338.697 20.3785C338.697 20.3732 338.697 20.368 338.697 20.3628C338.697 20.3575 338.697 20.3523 338.697 20.3471C338.697 20.3418 338.697 20.3366 338.697 20.3313C338.697 20.3261 338.697 20.3209 338.697 20.3156C338.697 20.3104 338.697 20.3051 338.697 20.2999C338.697 20.2947 338.697 20.2894 338.697 20.2842C338.697 20.2789 338.697 20.2737 338.697 20.2684C338.697 20.2632 338.697 20.2579 338.697 20.2527C338.697 20.2474 338.697 20.2422 338.697 20.237C338.697 20.2317 338.697 20.2265 338.697 20.2212C338.697 20.216 338.697 20.2107 338.697 20.2055C338.697 20.2002 338.697 20.195 338.697 20.1897C338.697 20.1844 338.697 20.1792 338.697 20.1739C338.697 20.1687 338.697 20.1634 338.697 20.1582C338.697 20.1529 338.697 20.1477 338.697 20.1424C338.697 20.1371 338.697 20.1319 338.697 20.1266C338.697 20.1214 338.697 20.1161 338.697 20.1108C338.697 20.1056 338.697 20.1003 338.697 20.0951C338.697 20.0898 338.697 20.0845 338.697 20.0793C338.697 20.074 338.697 20.0687 338.697 20.0635C338.697 20.0582 338.697 20.0529 338.697 20.0477C338.697 20.0424 338.697 20.0371 338.697 20.0319C338.697 20.0266 338.697 20.0213 338.697 20.0161C338.697 20.0108 338.697 20.0055 338.697 20.0003C338.697 19.995 338.697 19.9897 338.697 19.9844C338.697 19.9792 338.697 19.9739 338.697 19.9686C338.697 19.9633 338.697 19.9581 338.697 19.9528C338.697 19.9475 338.697 19.9422 338.697 19.937C338.697 19.9317 338.697 19.9264 338.697 19.9211C338.697 19.9158 338.697 19.9106 338.697 19.9053C338.697 19.9 338.697 19.8947 338.697 19.8894C338.697 19.8842 338.697 19.8789 338.697 19.8736C338.697 19.8683 338.697 19.863 338.697 19.8577C338.697 19.8525 338.697 19.8472 338.697 19.8419C338.697 19.8366 338.697 19.8313 338.697 19.826C338.697 19.8207 338.697 19.8154 338.697 19.8102C338.697 19.8049 338.697 19.7996 338.697 19.7943C338.697 19.789 338.697 19.7837 338.697 19.7784C338.697 19.7731 338.697 19.7678 338.697 19.7625C338.697 19.7572 338.697 19.7519 338.697 19.7466C338.697 19.7413 338.697 19.736 338.697 19.7308C338.697 19.7255 338.697 19.7202 338.697 19.7149C338.697 19.7096 338.697 19.7043 338.697 19.699C338.697 19.6937 338.697 19.6884 338.697 19.6831C338.697 19.6778 338.697 19.6725 338.697 19.6671C338.697 19.6618 338.697 19.6565 338.697 19.6512C338.697 19.6459 338.697 19.6406 338.697 19.6353C338.697 19.63 338.697 19.6247 338.697 19.6194C338.697 19.6141 338.697 19.6088 338.697 19.6035C338.697 19.5982 338.697 19.5928 338.697 19.5875C338.697 19.5822 338.697 19.5769 338.697 19.5716C338.697 19.5663 338.697 19.561 338.697 19.5557C338.697 19.5504 338.697 19.545 338.697 19.5397C338.697 19.5344 338.697 19.5291 338.697 19.5238C338.697 19.5185 338.697 19.5131 338.697 19.5078C338.697 19.5025 338.697 19.4972 338.697 19.4919C338.697 19.4865 338.697 19.4812 338.697 19.4759C338.697 19.4706 338.697 19.4652 338.697 19.4599C338.697 19.4546 338.697 19.4493 338.697 19.444C338.697 19.4386 338.697 19.4333 338.697 19.428C338.697 19.4226 338.697 19.4173 338.697 19.412C338.697 19.4067 338.697 19.4013 338.697 19.396C338.697 19.3907 338.697 19.3853 338.697 19.38C338.697 19.3747 338.697 19.3694 338.697 19.364C338.697 19.3587 338.697 19.3534 338.697 19.348C338.697 19.3427 338.697 19.3374 338.697 19.332C338.697 19.3267 338.697 19.3214 338.697 19.316C338.697 19.3107 338.697 19.3053 338.697 19.3H334.697C334.697 19.3053 334.697 19.3107 334.697 19.316C334.697 19.3214 334.697 19.3267 334.697 19.332C334.697 19.3374 334.697 19.3427 334.697 19.348C334.697 19.3534 334.697 19.3587 334.697 19.364C334.697 19.3694 334.697 19.3747 334.697 19.38C334.697 19.3853 334.697 19.3907 334.697 19.396C334.697 19.4013 334.697 19.4067 334.697 19.412C334.697 19.4173 334.697 19.4226 334.697 19.428C334.697 19.4333 334.697 19.4386 334.697 19.444C334.697 19.4493 334.697 19.4546 334.697 19.4599C334.697 19.4652 334.697 19.4706 334.697 19.4759C334.697 19.4812 334.697 19.4865 334.697 19.4919C334.697 19.4972 334.697 19.5025 334.697 19.5078C334.697 19.5131 334.697 19.5185 334.697 19.5238C334.697 19.5291 334.697 19.5344 334.697 19.5397C334.697 19.545 334.697 19.5504 334.697 19.5557C334.697 19.561 334.697 19.5663 334.697 19.5716C334.697 19.5769 334.697 19.5822 334.697 19.5875C334.697 19.5928 334.697 19.5982 334.697 19.6035C334.697 19.6088 334.697 19.6141 334.697 19.6194C334.697 19.6247 334.697 19.63 334.697 19.6353C334.697 19.6406 334.697 19.6459 334.697 19.6512C334.697 19.6565 334.697 19.6618 334.697 19.6671C334.697 19.6725 334.697 19.6778 334.697 19.6831C334.697 19.6884 334.697 19.6937 334.697 19.699C334.697 19.7043 334.697 19.7096 334.697 19.7149C334.697 19.7202 334.697 19.7255 334.697 19.7308C334.697 19.736 334.697 19.7413 334.697 19.7466C334.697 19.7519 334.697 19.7572 334.697 19.7625C334.697 19.7678 334.697 19.7731 334.697 19.7784C334.697 19.7837 334.697 19.789 334.697 19.7943C334.697 19.7996 334.697 19.8049 334.697 19.8102C334.697 19.8154 334.697 19.8207 334.697 19.826C334.697 19.8313 334.697 19.8366 334.697 19.8419C334.697 19.8472 334.697 19.8525 334.697 19.8577C334.697 19.863 334.697 19.8683 334.697 19.8736C334.697 19.8789 334.697 19.8842 334.697 19.8894C334.697 19.8947 334.697 19.9 334.697 19.9053C334.697 19.9106 334.697 19.9158 334.697 19.9211C334.697 19.9264 334.697 19.9317 334.697 19.937C334.697 19.9422 334.697 19.9475 334.697 19.9528C334.697 19.9581 334.697 19.9633 334.697 19.9686C334.697 19.9739 334.697 19.9792 334.697 19.9844C334.697 19.9897 334.697 19.995 334.697 20.0003C334.697 20.0055 334.697 20.0108 334.697 20.0161C334.697 20.0213 334.697 20.0266 334.697 20.0319C334.697 20.0371 334.697 20.0424 334.697 20.0477C334.697 20.0529 334.697 20.0582 334.697 20.0635C334.697 20.0687 334.697 20.074 334.697 20.0793C334.697 20.0845 334.697 20.0898 334.697 20.0951C334.697 20.1003 334.697 20.1056 334.697 20.1108C334.697 20.1161 334.697 20.1214 334.697 20.1266C334.697 20.1319 334.697 20.1371 334.697 20.1424C334.697 20.1477 334.697 20.1529 334.697 20.1582C334.697 20.1634 334.697 20.1687 334.697 20.1739C334.697 20.1792 334.697 20.1844 334.697 20.1897C334.697 20.195 334.697 20.2002 334.697 20.2055C334.697 20.2107 334.697 20.216 334.697 20.2212C334.697 20.2265 334.697 20.2317 334.697 20.237C334.697 20.2422 334.697 20.2474 334.697 20.2527C334.697 20.2579 334.697 20.2632 334.697 20.2684C334.697 20.2737 334.697 20.2789 334.697 20.2842C334.697 20.2894 334.697 20.2947 334.697 20.2999C334.697 20.3051 334.697 20.3104 334.697 20.3156C334.697 20.3209 334.697 20.3261 334.697 20.3313C334.697 20.3366 334.697 20.3418 334.697 20.3471C334.697 20.3523 334.697 20.3575 334.697 20.3628C334.697 20.368 334.697 20.3732 334.697 20.3785C334.697 20.3837 334.697 20.3889 334.697 20.3942C334.697 20.3994 334.697 20.4046 334.697 20.4099C334.697 20.4151 334.697 20.4203 334.697 20.4256C334.697 20.4308 334.697 20.436 334.697 20.4413C334.697 20.4465 334.697 20.4517 334.697 20.4569C334.697 20.4622 334.697 20.4674 334.697 20.4726C334.697 20.4778 334.697 20.4831 334.697 20.4883C334.697 20.4935 334.697 20.4987 334.697 20.504C334.697 20.5092 334.697 20.5144 334.697 20.5196C334.697 20.5249 334.697 20.5301 334.697 20.5353C334.697 20.5405 334.697 20.5457 334.697 20.5509C334.697 20.5562 334.697 20.5614 334.697 20.5666C334.697 20.5718 334.697 20.577 334.697 20.5822C334.697 20.5875 334.697 20.5927 334.697 20.5979C334.697 20.6031 334.697 20.6083 334.697 20.6135C334.697 20.6187 334.697 20.624 334.697 20.6292C334.697 20.6344 334.697 20.6396 334.697 20.6448C334.697 20.65 334.697 20.6552 334.697 20.6604C334.697 20.6656 334.697 20.6708 334.697 20.676C334.697 20.6812 334.697 20.6864 334.697 20.6917C334.697 20.6969 334.697 20.7021 334.697 20.7073C334.697 20.7125 334.697 20.7177 334.697 20.7229C334.697 20.7281 334.697 20.7333 334.697 20.7385C334.697 20.7437 334.697 20.7489 334.697 20.7541C334.697 20.7593 334.697 20.7645 334.697 20.7697C334.697 20.7749 334.697 20.78 334.697 20.7852C334.697 20.7904 334.697 20.7956 334.697 20.8008C334.697 20.806 334.697 20.8112 334.697 20.8164C334.697 20.8216 334.697 20.8268 334.697 20.832C334.697 20.8372 334.697 20.8424 334.697 20.8475C334.697 20.8527 334.697 20.8579 334.697 20.8631C334.697 20.8683 334.697 20.8735 334.697 20.8787C334.697 20.8839 334.697 20.889 334.697 20.8942C334.697 20.8994 334.697 20.9046 334.697 20.9098C334.697 20.915 334.697 20.9201 334.697 20.9253C334.697 20.9305 334.697 20.9357 334.697 20.9409C334.697 20.946 334.697 20.9512 334.697 20.9564C334.697 20.9616 334.697 20.9668 334.697 20.9719C334.697 20.9771 334.697 20.9823 334.697 20.9875C334.697 20.9926 334.697 20.9978 334.697 21.003C334.697 21.0082 334.697 21.0133 334.697 21.0185C334.697 21.0237 334.697 21.0289 334.697 21.034C334.697 21.0392 334.697 21.0444 334.697 21.0495C334.697 21.0547 334.697 21.0599 334.697 21.065C334.697 21.0702 334.697 21.0754 334.697 21.0805C334.697 21.0857 334.697 21.0909 334.697 21.096C334.697 21.1012 334.697 21.1064 334.697 21.1115C334.697 21.1167 334.697 21.1218 334.697 21.127C334.697 21.1322 334.697 21.1373 334.697 21.1425C334.697 21.1477 334.697 21.1528 334.697 21.158C334.697 21.1631 334.697 21.1683 334.697 21.1734C334.697 21.1786 334.697 21.1838 334.697 21.1889C334.697 21.1941 334.697 21.1992 334.697 21.2044C334.697 21.2095 334.697 21.2147 334.697 21.2198C334.697 21.225 334.697 21.2301 334.697 21.2353C334.697 21.2404 334.697 21.2456 334.697 21.2507C334.697 21.2559 334.697 21.261 334.697 21.2662C334.697 21.2713 334.697 21.2765 334.697 21.2816C334.697 21.2868 334.697 21.2919 334.697 21.2971C334.697 21.3022 334.697 21.3074 334.697 21.3125C334.697 21.3176 334.697 21.3228 334.697 21.3279C334.697 21.3331 334.697 21.3382 334.697 21.3433C334.697 21.3485 334.697 21.3536 334.697 21.3588C334.697 21.3639 334.697 21.369 334.697 21.3742C334.697 21.3793 334.697 21.3845 334.697 21.3896C334.697 21.3947 334.697 21.3999 334.697 21.405C334.697 21.4101 334.697 21.4153 334.697 21.4204C334.697 21.4255 334.697 21.4307 334.697 21.4358C334.697 21.4409 334.697 21.446 334.697 21.4512C334.697 21.4563 334.697 21.4614 334.697 21.4666C334.697 21.4717 334.697 21.4768 334.697 21.4819C334.697 21.4871 334.697 21.4922 334.697 21.4973C334.697 21.5024 334.697 21.5076 334.697 21.5127C334.697 21.5178 334.697 21.5229 334.697 21.5281C334.697 21.5332 334.697 21.5383 334.697 21.5434C334.697 21.5485 334.697 21.5537 334.697 21.5588C334.697 21.5639 334.697 21.569 334.697 21.5741C334.697 21.5793 334.697 21.5844 334.697 21.5895C334.697 21.5946 334.697 21.5997 334.697 21.6048C334.697 21.61 334.697 21.6151 334.697 21.6202C334.697 21.6253 334.697 21.6304 334.697 21.6355C334.697 21.6406 334.697 21.6457 334.697 21.6508C334.697 21.656 334.697 21.6611 334.697 21.6662C334.697 21.6713 334.697 21.6764 334.697 21.6815C334.697 21.6866 334.697 21.6917 334.697 21.6968C334.697 21.7019 334.697 21.707 334.697 21.7121C334.697 21.7172 334.697 21.7223 334.697 21.7274C334.697 21.7325 334.697 21.7376 334.697 21.7427C334.697 21.7478 334.697 21.7529 334.697 21.758C334.697 21.7631 334.697 21.7682 334.697 21.7733C334.697 21.7784 334.697 21.7835 334.697 21.7886C334.697 21.7937 334.697 21.7988 334.697 21.8039C334.697 21.809 334.697 21.8141 334.697 21.8192C334.697 21.8243 334.697 21.8294 334.697 21.8345C334.697 21.8396 334.697 21.8446 334.697 21.8497C334.697 21.8548 334.697 21.8599 334.697 21.865C334.697 21.8701 334.697 21.8752 334.697 21.8803C334.697 21.8853 334.697 21.8904 334.697 21.8955C334.697 21.9006 334.697 21.9057 334.697 21.9108C334.697 21.9159 334.697 21.9209 334.697 21.926C334.697 21.9311 334.697 21.9362 334.697 21.9413C334.697 21.9463 334.697 21.9514 334.697 21.9565C334.697 21.9616 334.697 21.9667 334.697 21.9717C334.697 21.9768 334.697 21.9819 334.697 21.987C334.697 21.9921 334.697 21.9971 334.697 22.0022C334.697 22.0073 334.697 22.0123 334.697 22.0174C334.697 22.0225 334.697 22.0276 334.697 22.0326C334.697 22.0377 334.697 22.0428 334.697 22.0478C334.697 22.0529 334.697 22.058 334.697 22.0631C334.697 22.0681 334.697 22.0732 334.697 22.0783C334.697 22.0833 334.697 22.0884 334.697 22.0935C334.697 22.0985 334.697 22.1036 334.697 22.1087C334.697 22.1137 334.697 22.1188 334.697 22.1238C334.697 22.1289 334.697 22.134 334.697 22.139C334.697 22.1441 334.697 22.1491 334.697 22.1542C334.697 22.1593 334.697 22.1643 334.697 22.1694C334.697 22.1744 334.697 22.1795 334.697 22.1846C334.697 22.1896 334.697 22.1947 334.697 22.1997C334.697 22.2048 334.697 22.2098 334.697 22.2149C334.697 22.2199 334.697 22.225 334.697 22.23C334.697 22.2351 334.697 22.2401 334.697 22.2452C334.697 22.2502 334.697 22.2553 334.697 22.2603C334.697 22.2654 334.697 22.2704 334.697 22.2755C334.697 22.2805 334.697 22.2856 334.697 22.2906C334.697 22.2957 334.697 22.3007 334.697 22.3058C334.697 22.3108 334.697 22.3158 334.697 22.3209C334.697 22.3259 334.697 22.331 334.697 22.336C334.697 22.3411 334.697 22.3461 334.697 22.3511C334.697 22.3562 334.697 22.3612 334.697 22.3662C334.697 22.3713 334.697 22.3763 334.697 22.3814C334.697 22.3864 334.697 22.3914 334.697 22.3965C334.697 22.4015 334.697 22.4065 334.697 22.4116C334.697 22.4166 334.697 22.4216 334.697 22.4267C334.697 22.4317 334.697 22.4367 334.697 22.4418C334.697 22.4468 334.697 22.4518 334.697 22.4568C334.697 22.4619 334.697 22.4669 334.697 22.4719C334.697 22.477 334.697 22.482 334.697 22.487C334.697 22.492 334.697 22.4971 334.697 22.5021C334.697 22.5071 334.697 22.5121 334.697 22.5172C334.697 22.5222 334.697 22.5272 334.697 22.5322C334.697 22.5372 334.697 22.5423 334.697 22.5473C334.697 22.5523 334.697 22.5573 334.697 22.5623C334.697 22.5674 334.697 22.5724 334.697 22.5774C334.697 22.5824 334.697 22.5874 334.697 22.5924C334.697 22.5975 334.697 22.6025 334.697 22.6075C334.697 22.6125 334.697 22.6175 334.697 22.6225C334.697 22.6275 334.697 22.6325 334.697 22.6376C334.697 22.6426 334.697 22.6476 334.697 22.6526C334.697 22.6576 334.697 22.6626 334.697 22.6676C334.697 22.6726 334.697 22.6776 334.697 22.6826C334.697 22.6876 334.697 22.6926 334.697 22.6976C334.697 22.7026 334.697 22.7077 334.697 22.7127C334.697 22.7177 334.697 22.7227 334.697 22.7277C334.697 22.7327 334.697 22.7377 334.697 22.7427C334.697 22.7477 334.697 22.7527 334.697 22.7577C334.697 22.7627 334.697 22.7677 334.697 22.7727C334.697 22.7776 334.697 22.7826 334.697 22.7876C334.697 22.7926 334.697 22.7976 334.697 22.8026C334.697 22.8076 334.697 22.8126 334.697 22.8176C334.697 22.8226 334.697 22.8276 334.697 22.8326C334.697 22.8376 334.697 22.8426 334.697 22.8475C334.697 22.8525 334.697 22.8575 334.697 22.8625C334.697 22.8675 334.697 22.8725 334.697 22.8775C334.697 22.8825 334.697 22.8874 334.697 22.8924C334.697 22.8974 334.697 22.9024 334.697 22.9074C334.697 22.9124 334.697 22.9173 334.697 22.9223C334.697 22.9273 334.697 22.9323 334.697 22.9373C334.697 22.9422 334.697 22.9472 334.697 22.9522C334.697 22.9572 334.697 22.9622 334.697 22.9671C334.697 22.9721 334.697 22.9771 334.697 22.9821C334.697 22.987 334.697 22.992 334.697 22.997C334.697 23.002 334.697 23.0069 334.697 23.0119C334.697 23.0169 334.697 23.0219 334.697 23.0268C334.697 23.0318 334.697 23.0368 334.697 23.0417C334.697 23.0467 334.697 23.0517 334.697 23.0566C334.697 23.0616 334.697 23.0666 334.697 23.0715C334.697 23.0765 334.697 23.0815 334.697 23.0864C334.697 23.0914 334.697 23.0964 334.697 23.1013C334.697 23.1063 334.697 23.1113 334.697 23.1162C334.697 23.1212 334.697 23.1261 334.697 23.1311C334.697 23.1361 334.697 23.141 334.697 23.146C334.697 23.1509 334.697 23.1559 334.697 23.1609C334.697 23.1658 334.697 23.1708 334.697 23.1757C334.697 23.1807 334.697 23.1856 334.697 23.1906C334.697 23.1955 334.697 23.2005 334.697 23.2054C334.697 23.2104 334.697 23.2154 334.697 23.2203C334.697 23.2253 334.697 23.2302 334.697 23.2351C334.697 23.2401 334.697 23.245 334.697 23.25C334.697 23.2549 334.697 23.2599 334.697 23.2648C334.697 23.2698 334.697 23.2747 334.697 23.2797C334.697 23.2846 334.697 23.2896 334.697 23.2945C334.697 23.2994 334.697 23.3044 334.697 23.3093C334.697 23.3143 334.697 23.3192 334.697 23.3242C334.697 23.3291 334.697 23.334 334.697 23.339C334.697 23.3439 334.697 23.3489 334.697 23.3538C334.697 23.3587 334.697 23.3637 334.697 23.3686C334.697 23.3735 334.697 23.3785 334.697 23.3834C334.697 23.3883 334.697 23.3933 334.697 23.3982C334.697 23.4031 334.697 23.4081 334.697 23.413C334.697 23.4179 334.697 23.4229 334.697 23.4278C334.697 23.4327 334.697 23.4377 334.697 23.4426C334.697 23.4475 334.697 23.4524 334.697 23.4574C334.697 23.4623 334.697 23.4672 334.697 23.4721C334.697 23.4771 334.697 23.482 334.697 23.4869C334.697 23.4918 334.697 23.4968 334.697 23.5017C334.697 23.5066 334.697 23.5115 334.697 23.5164C334.697 23.5214 334.697 23.5263 334.697 23.5312C334.697 23.5361 334.697 23.541 334.697 23.546C334.697 23.5509 334.697 23.5558 334.697 23.5607C334.697 23.5656 334.697 23.5705 334.697 23.5755C334.697 23.5804 334.697 23.5853 334.697 23.5902C334.697 23.5951 334.697 23.6 334.697 23.6049C334.697 23.6098 334.697 23.6147 334.697 23.6197C334.697 23.6246 334.697 23.6295 334.697 23.6344C334.697 23.6393 334.697 23.6442 334.697 23.6491C334.697 23.654 334.697 23.6589 334.697 23.6638C334.697 23.6687 334.697 23.6736 334.697 23.6785C334.697 23.6834 334.697 23.6883 334.697 23.6932C334.697 23.6982 334.697 23.7031 334.697 23.708C334.697 23.7129 334.697 23.7178 334.697 23.7227C334.697 23.7276 334.697 23.7325 334.697 23.7373C334.697 23.7422 334.697 23.7471 334.697 23.752C334.697 23.7569 334.697 23.7618 334.697 23.7667C334.697 23.7716 334.697 23.7765 334.697 23.7814C334.697 23.7863 334.697 23.7912 334.697 23.7961C334.697 23.801 334.697 23.8059 334.697 23.8108C334.697 23.8156 334.697 23.8205 334.697 23.8254C334.697 23.8303 334.697 23.8352 334.697 23.8401C334.697 23.845 334.697 23.8499 334.697 23.8547C334.697 23.8596 334.697 23.8645 334.697 23.8694C334.697 23.8743 334.697 23.8792 334.697 23.884C334.697 23.8889 334.697 23.8938 334.697 23.8987C334.697 23.9036 334.697 23.9085 334.697 23.9133C334.697 23.9182 334.697 23.9231 334.697 23.928C334.697 23.9328 334.697 23.9377 334.697 23.9426C334.697 23.9475 334.697 23.9524 334.697 23.9572C334.697 23.9621 334.697 23.967 334.697 23.9718C334.697 23.9767 334.697 23.9816 334.697 23.9865C334.697 23.9913 334.697 23.9962 334.697 24.0011C334.697 24.0059 334.697 24.0108 334.697 24.0157C334.697 24.0206 334.697 24.0254 334.697 24.0303C334.697 24.0352 334.697 24.04 334.697 24.0449C334.697 24.0498 334.697 24.0546 334.697 24.0595C334.697 24.0643 334.697 24.0692 334.697 24.0741C334.697 24.0789 334.697 24.0838 334.697 24.0887C334.697 24.0935 334.697 24.0984 334.697 24.1032C334.697 24.1081 334.697 24.113 334.697 24.1178C334.697 24.1227 334.697 24.1275 334.697 24.1324C334.697 24.1372 334.697 24.1421 334.697 24.1469C334.697 24.1518 334.697 24.1567 334.697 24.1615C334.697 24.1664 334.697 24.1712 334.697 24.1761C334.697 24.1809 334.697 24.1858 334.697 24.1906C334.697 24.1955 334.697 24.2003 334.697 24.2052C334.697 24.21 334.697 24.2149 334.697 24.2197C334.697 24.2246 334.697 24.2294 334.697 24.2343C334.697 24.2391 334.697 24.2439 334.697 24.2488C334.697 24.2536 334.697 24.2585 334.697 24.2633C334.697 24.2682 334.697 24.273 334.697 24.2778C334.697 24.2827 334.697 24.2875 334.697 24.2924C334.697 24.2972 334.697 24.302 334.697 24.3069C334.697 24.3117 334.697 24.3166 334.697 24.3214C334.697 24.3262 334.697 24.3311 334.697 24.3359C334.697 24.3407 334.697 24.3456 334.697 24.3504C334.697 24.3552 334.697 24.3601 334.697 24.3649C334.697 24.3697 334.697 24.3746 334.697 24.3794C334.697 24.3842 334.697 24.3891 334.697 24.3939C334.697 24.3987 334.697 24.4035 334.697 24.4084C334.697 24.4132 334.697 24.418 334.697 24.4228C334.697 24.4277 334.697 24.4325 334.697 24.4373C334.697 24.4421 334.697 24.447 334.697 24.4518C334.697 24.4566 334.697 24.4614 334.697 24.4663C334.697 24.4711 334.697 24.4759 334.697 24.4807C334.697 24.4855 334.697 24.4904 334.697 24.4952C334.697 24.5 334.697 24.5048 334.697 24.5096C334.697 24.5144 334.697 24.5193 334.697 24.5241C334.697 24.5289 334.697 24.5337 334.697 24.5385C334.697 24.5433 334.697 24.5481 334.697 24.553C334.697 24.5578 334.697 24.5626 334.697 24.5674C334.697 24.5722 334.697 24.577 334.697 24.5818C334.697 24.5866 334.697 24.5914 334.697 24.5962C334.697 24.6011 334.697 24.6059 334.697 24.6107C334.697 24.6155 334.697 24.6203 334.697 24.6251C334.697 24.6299 334.697 24.6347 334.697 24.6395C334.697 24.6443 334.697 24.6491 334.697 24.6539C334.697 24.6587 334.697 24.6635 334.697 24.6683C334.697 24.6731 334.697 24.6779 334.697 24.6827C334.697 24.6875 334.697 24.6923 334.697 24.6971C334.697 24.7019 334.697 24.7067 334.697 24.7115C334.697 24.7163 334.697 24.7211 334.697 24.7259C334.697 24.7307 334.697 24.7355 334.697 24.7402C334.697 24.745 334.697 24.7498 334.697 24.7546C334.697 24.7594 334.697 24.7642 334.697 24.769C334.697 24.7738 334.697 24.7786 334.697 24.7834C334.697 24.7881 334.697 24.7929 334.697 24.7977C334.697 24.8025 334.697 24.8073 334.697 24.8121C334.697 24.8169 334.697 24.8216 334.697 24.8264C334.697 24.8312 334.697 24.836 334.697 24.8408C334.697 24.8456 334.697 24.8503 334.697 24.8551C334.697 24.8599 334.697 24.8647 334.697 24.8695C334.697 24.8742 334.697 24.879 334.697 24.8838C334.697 24.8886 334.697 24.8933 334.697 24.8981C334.697 24.9029 334.697 24.9077 334.697 24.9124C334.697 24.9172 334.697 24.922 334.697 24.9268C334.697 24.9315 334.697 24.9363 334.697 24.9411C334.697 24.9458 334.697 24.9506 334.697 24.9554C334.697 24.9602 334.697 24.9649 334.697 24.9697C334.697 24.9745 334.697 24.9792 334.697 24.984C334.697 24.9888 334.697 24.9935 334.697 24.9983C334.697 25.0031 334.697 25.0078 334.697 25.0126C334.697 25.0173 334.697 25.0221 334.697 25.0269C334.697 25.0316 334.697 25.0364 334.697 25.0411C334.697 25.0459 334.697 25.0507 334.697 25.0554C334.697 25.0602 334.697 25.0649 334.697 25.0697C334.697 25.0745 334.697 25.0792 334.697 25.084C334.697 25.0887 334.697 25.0935 334.697 25.0982C334.697 25.103 334.697 25.1077 334.697 25.1125C334.697 25.1172 334.697 25.122 334.697 25.1268C334.697 25.1315 334.697 25.1363 334.697 25.141C334.697 25.1458 334.697 25.1505 334.697 25.1553C334.697 25.16 334.697 25.1647 334.697 25.1695C334.697 25.1742 334.697 25.179 334.697 25.1837C334.697 25.1885 334.697 25.1932 334.697 25.198C334.697 25.2027 334.697 25.2074 334.697 25.2122C334.697 25.2169 334.697 25.2217 334.697 25.2264C334.697 25.2312 334.697 25.2359 334.697 25.2406C334.697 25.2454 334.697 25.2501 334.697 25.2548C334.697 25.2596 334.697 25.2643 334.697 25.2691C334.697 25.2738 334.697 25.2785 334.697 25.2833C334.697 25.288 334.697 25.2927 334.697 25.2975C334.697 25.3022 334.697 25.3069 334.697 25.3117C334.697 25.3164 334.697 25.3211 334.697 25.3258C334.697 25.3306 334.697 25.3353 334.697 25.34C334.697 25.3448 334.697 25.3495 334.697 25.3542C334.697 25.3589 334.697 25.3637 334.697 25.3684C334.697 25.3731 334.697 25.3778 334.697 25.3826C334.697 25.3873 334.697 25.392 334.697 25.3967C334.697 25.4015 334.697 25.4062 334.697 25.4109C334.697 25.4156 334.697 25.4203 334.697 25.4251C334.697 25.4298 334.697 25.4345 334.697 25.4392C334.697 25.4439 334.697 25.4487 334.697 25.4534C334.697 25.4581 334.697 25.4628 334.697 25.4675C334.697 25.4722 334.697 25.4769 334.697 25.4817C334.697 25.4864 334.697 25.4911 334.697 25.4958C334.697 25.5005 334.697 25.5052 334.697 25.5099C334.697 25.5146 334.697 25.5193 334.697 25.524C334.697 25.5288 334.697 25.5335 334.697 25.5382C334.697 25.5429 334.697 25.5476 334.697 25.5523C334.697 25.557 334.697 25.5617 334.697 25.5664C334.697 25.5711 334.697 25.5758 334.697 25.5805C334.697 25.5852 334.697 25.5899 334.697 25.5946C334.697 25.5993 334.697 25.604 334.697 25.6087C334.697 25.6134 334.697 25.6181 334.697 25.6228C334.697 25.6275 334.697 25.6322 334.697 25.6369C334.697 25.6416 334.697 25.6463 334.697 25.651C334.697 25.6557 334.697 25.6604 334.697 25.6651C334.697 25.6698 334.697 25.6745 334.697 25.6791C334.697 25.6838 334.697 25.6885 334.697 25.6932C334.697 25.6979 334.697 25.7026 334.697 25.7073C334.697 25.712 334.697 25.7167 334.697 25.7214C334.697 25.726 334.697 25.7307 334.697 25.7354C334.697 25.7401 334.697 25.7448 334.697 25.7495C334.697 25.7541 334.697 25.7588 334.697 25.7635C334.697 25.7682 334.697 25.7729 334.697 25.7776C334.697 25.7822 334.697 25.7869 334.697 25.7916C334.697 25.7963 334.697 25.801 334.697 25.8056C334.697 25.8103 334.697 25.815 334.697 25.8197C334.697 25.8243 334.697 25.829 334.697 25.8337C334.697 25.8384 334.697 25.843 334.697 25.8477C334.697 25.8524 334.697 25.8571 334.697 25.8617C334.697 25.8664 334.697 25.8711 334.697 25.8757C334.697 25.8804 334.697 25.8851 334.697 25.8898C334.697 25.8944 334.697 25.8991 334.697 25.9038C334.697 25.9084 334.697 25.9131 334.697 25.9178C334.697 25.9224 334.697 25.9271 334.697 25.9318C334.697 25.9364 334.697 25.9411 334.697 25.9457C334.697 25.9504 334.697 25.9551 334.697 25.9597C334.697 25.9644 334.697 25.969 334.697 25.9737C334.697 25.9784 334.697 25.983 334.697 25.9877C334.697 25.9923 334.697 25.997 334.697 26.0017C334.697 26.0063 334.697 26.011 334.697 26.0156C334.697 26.0203 334.697 26.0249 334.697 26.0296C334.697 26.0342 334.697 26.0389 334.697 26.0435C334.697 26.0482 334.697 26.0528 334.697 26.0575C334.697 26.0621 334.697 26.0668 334.697 26.0714C334.697 26.0761 334.697 26.0807 334.697 26.0854C334.697 26.09 334.697 26.0947 334.697 26.0993C334.697 26.104 334.697 26.1086 334.697 26.1133C334.697 26.1179 334.697 26.1226 334.697 26.1272C334.697 26.1318 334.697 26.1365 334.697 26.1411C334.697 26.1458 334.697 26.1504 334.697 26.155C334.697 26.1597 334.697 26.1643 334.697 26.169C334.697 26.1736 334.697 26.1782 334.697 26.1829C334.697 26.1875 334.697 26.1921 334.697 26.1968C334.697 26.2014 334.697 26.206 334.697 26.2107C334.697 26.2153 334.697 26.2199 334.697 26.2246C334.697 26.2292 334.697 26.2338 334.697 26.2385C334.697 26.2431 334.697 26.2477 334.697 26.2524C334.697 26.257 334.697 26.2616 334.697 26.2662C334.697 26.2709 334.697 26.2755 334.697 26.2801C334.697 26.2848 334.697 26.2894 334.697 26.294C334.697 26.2986 334.697 26.3032 334.697 26.3079C334.697 26.3125 334.697 26.3171 334.697 26.3217C334.697 26.3264 334.697 26.331 334.697 26.3356C334.697 26.3402 334.697 26.3448 334.697 26.3495C334.697 26.3541 334.697 26.3587 334.697 26.3633C334.697 26.3679 334.697 26.3725 334.697 26.3772C334.697 26.3818 334.697 26.3864 334.697 26.391C334.697 26.3956 334.697 26.4002 334.697 26.4048C334.697 26.4095 334.697 26.4141 334.697 26.4187C334.697 26.4233 334.697 26.4279 334.697 26.4325C334.697 26.4371 334.697 26.4417 334.697 26.4463C334.697 26.4509 334.697 26.4555 334.697 26.4602C334.697 26.4648 334.697 26.4694 334.697 26.474C334.697 26.4786 334.697 26.4832 334.697 26.4878C334.697 26.4924 334.697 26.497 334.697 26.5016C334.697 26.5062 334.697 26.5108 334.697 26.5154C334.697 26.52 334.697 26.5246 334.697 26.5292C334.697 26.5338 334.697 26.5384 334.697 26.543C334.697 26.5476 334.697 26.5522 334.697 26.5568C334.697 26.5614 334.697 26.566 334.697 26.5706C334.697 26.5751 334.697 26.5797 334.697 26.5843C334.697 26.5889 334.697 26.5935 334.697 26.5981C334.697 26.6027 334.697 26.6073 334.697 26.6119C334.697 26.6165 334.697 26.6211 334.697 26.6256C334.697 26.6302 334.697 26.6348 334.697 26.6394C334.697 26.644 334.697 26.6486 334.697 26.6532C334.697 26.6577 334.697 26.6623 334.697 26.6669C334.697 26.6715 334.697 26.6761 334.697 26.6807C334.697 26.6852 334.697 26.6898 334.697 26.6944C334.697 26.699 334.697 26.7036 334.697 26.7081C334.697 26.7127 334.697 26.7173 334.697 26.7219C334.697 26.7265 334.697 26.731 334.697 26.7356C334.697 26.7402 334.697 26.7448 334.697 26.7493C334.697 26.7539 334.697 26.7585 334.697 26.7631C334.697 26.7676 334.697 26.7722 334.697 26.7768C334.697 26.7813 334.697 26.7859 334.697 26.7905C334.697 26.795 334.697 26.7996 334.697 26.8042C334.697 26.8088 334.697 26.8133 334.697 26.8179C334.697 26.8224 334.697 26.827 334.697 26.8316C334.697 26.8361 334.697 26.8407 334.697 26.8453C334.697 26.8498 334.697 26.8544 334.697 26.859C334.697 26.8635 334.697 26.8681 334.697 26.8726C334.697 26.8772 334.697 26.8818 334.697 26.8863C334.697 26.8909 334.697 26.8954 334.697 26.9H338.697ZM338.697 19.3V2H334.697V19.3H338.697ZM336.697 4H353.197V-3.8147e-06H336.697V4ZM351.197 2V72H355.197V2H351.197ZM353.197 70H337.797V74H353.197V70ZM339.403 70.808L301.103 19.208L297.891 21.592L336.191 73.192L339.403 70.808ZM299.225 22.3814L304.325 23.0814L304.869 19.1186L299.769 18.4186L299.225 22.3814ZM302.608 21.3072C302.94 24.5006 303.206 27.2229 303.405 29.4758L307.389 29.1242C307.188 26.8438 306.92 24.0994 306.586 20.8928L302.608 21.3072ZM303.411 29.5407C303.675 31.7191 303.872 33.6558 304.003 35.3534L307.991 35.0466C307.855 33.2775 307.652 31.2809 307.382 29.0593L303.411 29.5407ZM304.01 35.4292C304.206 37.1283 304.335 38.6492 304.399 39.9951L308.395 39.8049C308.325 38.3508 308.188 36.7384 307.984 34.9707L304.01 35.4292ZM304.399 39.9951C304.464 41.3635 304.497 42.7318 304.497 44.1H308.497C308.497 42.6682 308.463 41.2365 308.395 39.8049L304.399 39.9951ZM304.499 44.1999C304.564 45.493 304.597 46.9589 304.597 48.6H308.597C308.597 46.9078 308.563 45.3737 308.494 44.0001L304.499 44.1999ZM304.597 48.6V72H308.597V48.6H304.597ZM306.597 70H290.097V74H306.597V70ZM388.061 70.3L387.323 72.1588V72.1588L388.061 70.3ZM376.361 62.7L377.775 61.2858L376.361 62.7ZM368.861 51.2L366.996 51.9236L367 51.9331L368.861 51.2ZM368.961 22.4L367.12 21.6189L367.117 21.6258L367.114 21.6328L368.961 22.4ZM376.861 10.9L378.247 12.3422L376.861 10.9ZM388.861 3.3L388.141 1.43397L388.132 1.43751L388.861 3.3ZM414.961 2.09999L414.397 4.01875L414.407 4.02164L414.961 2.09999ZM424.361 6.19999L425.414 4.49947V4.49946L424.361 6.19999ZM431.461 12.2L432.915 13.5736L434.148 12.2684L432.983 10.9021L431.461 12.2ZM421.161 23.1L419.776 24.5428L421.23 25.9388L422.615 24.4736L421.161 23.1ZM415.961 19.1L414.913 20.8033L414.927 20.8121L414.941 20.8206L415.961 19.1ZM410.361 16.6L409.728 18.4974L409.757 18.5069L409.786 18.5157L410.361 16.6ZM395.861 17.2L395.067 15.3643L395.058 15.3683L395.049 15.3724L395.861 17.2ZM389.461 21.7L388.022 20.3108L388.021 20.3117L389.461 21.7ZM385.261 28.4L387.121 29.1343L387.124 29.1262L387.128 29.118L385.261 28.4ZM385.361 45.1L387.211 44.3409V44.3409L385.361 45.1ZM389.761 51.9L388.322 53.2892L388.334 53.3018L388.347 53.3142L389.761 51.9ZM396.361 56.4L395.544 58.2256L395.573 58.2384L395.602 58.2503L396.361 56.4ZM410.461 57L409.788 55.1165L409.777 55.1204L409.766 55.1245L410.461 57ZM415.261 54.3L416.556 55.8239V55.8239L415.261 54.3ZM418.461 50.3L420.234 51.2251L420.242 51.2098L420.25 51.1944L418.461 50.3ZM419.661 42.6L421.34 41.5135L417.661 35.8276V42.6H419.661ZM421.861 46V48H425.537L423.54 44.9135L421.861 46ZM402.561 46H400.561V48H402.561V46ZM402.561 32.7V30.7H400.561V32.7H402.561ZM435.461 32.7L437.429 32.3422L437.13 30.7H435.461V32.7ZM435.761 35.7L433.764 35.8051L435.761 35.7ZM435.861 39.4H433.861V39.4555L433.864 39.5109L435.861 39.4ZM433.461 54.6L431.629 53.7967L431.626 53.8044L431.623 53.8122L433.461 54.6ZM426.661 64.3L425.297 62.8368L426.661 64.3ZM416.261 70.7L416.977 72.5675L416.261 70.7ZM403.261 71C397.877 71 393.065 70.1351 388.799 68.4412L387.323 72.1588C392.123 74.0649 397.445 75 403.261 75V71ZM388.799 68.4412C384.505 66.736 380.838 64.3491 377.775 61.2858L374.947 64.1142C378.417 67.5843 382.551 70.264 387.323 72.1588L388.799 68.4412ZM377.775 61.2858C374.707 58.2178 372.357 54.6179 370.722 50.4669L367 51.9331C368.832 56.5821 371.481 60.6489 374.947 64.1142L377.775 61.2858ZM370.725 50.4764C369.089 46.2595 368.261 41.6737 368.261 36.7H364.261C364.261 42.1263 365.166 47.2072 366.996 51.9235L370.725 50.4764ZM368.261 36.7C368.261 31.7348 369.119 27.2323 370.808 23.1672L367.114 21.6328C365.203 26.2343 364.261 31.2652 364.261 36.7H368.261ZM370.802 23.1811C372.565 19.0265 375.044 15.4189 378.247 12.3422L375.475 9.45779C371.878 12.9144 369.091 16.9735 367.12 21.6189L370.802 23.1811ZM378.247 12.3422C381.448 9.26598 385.222 6.87148 389.59 5.16248L388.132 1.43751C383.3 3.32851 379.074 6.00068 375.475 9.45779L378.247 12.3422ZM389.581 5.166C393.997 3.46246 398.817 2.59999 404.061 2.59999V-1.40001C398.371 -1.40001 393.058 -0.462469 388.141 1.43399L389.581 5.166ZM404.061 2.59999C407.754 2.59999 411.196 3.07729 414.397 4.01873L415.525 0.181263C411.926 -0.8773 408.101 -1.40001 404.061 -1.40001V2.59999ZM414.407 4.02164C417.714 4.97583 420.678 6.272 423.308 7.90052L425.414 4.49946C422.444 2.66133 419.141 1.22417 415.515 0.178347L414.407 4.02164ZM423.308 7.90052C425.95 9.53616 428.154 11.4046 429.939 13.4979L432.983 10.9021C430.901 8.46206 428.371 6.3305 425.414 4.49947L423.308 7.90052ZM430.007 10.8264L419.707 21.7264L422.615 24.4736L432.915 13.5736L430.007 10.8264ZM422.546 21.6572C420.78 19.9618 418.926 18.532 416.981 17.3794L414.941 20.8206C416.596 21.8013 418.209 23.0382 419.776 24.5428L422.546 21.6572ZM417.009 17.3967C415.124 16.2366 413.098 15.333 410.936 14.6843L409.786 18.5157C411.624 19.067 413.331 19.83 414.913 20.8033L417.009 17.3967ZM410.993 14.7026C408.775 13.9631 406.426 13.6 403.961 13.6V17.6C406.029 17.6 407.947 17.9036 409.728 18.4974L410.993 14.7026ZM403.961 13.6C400.78 13.6 397.807 14.1797 395.067 15.3643L396.655 19.0357C398.849 18.087 401.275 17.6 403.961 17.6V13.6ZM395.049 15.3724C392.408 16.546 390.063 18.1968 388.022 20.3108L390.9 23.0892C392.592 21.3365 394.514 19.9873 396.673 19.0276L395.049 15.3724ZM388.021 20.3117C386.022 22.385 384.483 24.851 383.394 27.682L387.128 29.118C388.039 26.749 389.3 24.7484 390.901 23.0883L388.021 20.3117ZM383.401 27.6657C382.299 30.4555 381.761 33.4742 381.761 36.7H385.761C385.761 33.9258 386.222 31.4112 387.121 29.1343L383.401 27.6657ZM381.761 36.7C381.761 39.9426 382.339 43.0023 383.511 45.8591L387.211 44.3409C386.25 41.9977 385.761 39.4574 385.761 36.7H381.761ZM383.511 45.8591C384.669 48.6824 386.272 51.1655 388.322 53.2892L391.2 50.5108C389.517 48.7678 388.186 46.7176 387.211 44.3409L383.511 45.8591ZM388.347 53.3142C390.395 55.362 392.8 56.9979 395.544 58.2256L397.178 54.5744C394.855 53.5354 392.861 52.1713 391.175 50.4858L388.347 53.3142ZM395.602 58.2503C398.453 59.4201 401.479 60 404.661 60V56C401.976 56 399.469 55.5132 397.12 54.5497L395.602 58.2503ZM404.661 60C406.946 60 409.117 59.6306 411.156 58.8755L409.766 55.1245C408.205 55.7027 406.509 56 404.661 56V60ZM411.134 58.8835C413.198 58.1462 415.016 57.133 416.556 55.8239L413.966 52.7761C412.839 53.7336 411.457 54.5204 409.788 55.1165L411.134 58.8835ZM416.556 55.8239C418.084 54.5256 419.313 52.9897 420.234 51.2251L416.688 49.3749C416.008 50.6769 415.105 51.8077 413.966 52.7761L416.556 55.8239ZM420.25 51.1944C421.19 49.3149 421.661 47.3085 421.661 45.2H417.661C417.661 46.6915 417.332 48.0851 416.672 49.4056L420.25 51.1944ZM421.661 45.2V42.6H417.661V45.2H421.661ZM417.982 43.6865L420.182 47.0865L423.54 44.9135L421.34 41.5135L417.982 43.6865ZM421.861 44H402.561V48H421.861V44ZM404.561 46V32.7H400.561V46H404.561ZM402.561 34.7H435.461V30.7H402.561V34.7ZM433.493 33.0578C433.604 33.6697 433.699 34.5733 433.764 35.8051L437.758 35.5949C437.69 34.2934 437.584 33.1969 437.429 32.3422L433.493 33.0578ZM433.764 35.8051C433.829 37.0387 433.861 38.237 433.861 39.4H437.861C437.861 38.163 437.827 36.8946 437.758 35.5949L433.764 35.8051ZM433.864 39.5109C433.93 40.7028 433.961 41.5576 433.961 42.1H437.961C437.961 41.4424 437.925 40.4972 437.858 39.2891L433.864 39.5109ZM433.961 42.1C433.961 46.3826 433.175 50.2725 431.629 53.7967L435.293 55.4033C437.08 51.3275 437.961 46.8841 437.961 42.1H433.961ZM431.623 53.8122C430.131 57.2932 428.025 60.2956 425.297 62.8368L428.024 65.7632C431.164 62.8377 433.591 59.3734 435.299 55.3878L431.623 53.8122ZM425.297 62.8368C422.565 65.3833 419.322 67.3847 415.545 68.8325L416.977 72.5675C421.2 70.9486 424.891 68.6833 428.024 65.7632L425.297 62.8368ZM415.545 68.8325C411.793 70.2707 407.705 71 403.261 71V75C408.15 75 412.729 74.1959 416.977 72.5675L415.545 68.8325Z" fill="white" mask="url(#path-1-outside-1_107_15)"/>
</g>
<defs>
<filter id="filter0_d_107_15" x="0" y="0.400002" width="439.961" height="80.6" filterUnits="userSpaceOnUse" color-interpolation-filters="sRGB">
<feFlood flood-opacity="0" result="BackgroundImageFix"/>
<feColorMatrix in="SourceAlpha" type="matrix" values="0 0 0 0 0 0 0 0 0 0 0 0 0 0 0 0 0 0 127 0" result="hardAlpha"/>
<feOffset dy="4"/>
<feGaussianBlur stdDeviation="2"/>
<feComposite in2="hardAlpha" operator="out"/>
<feColorMatrix type="matrix" values="0 0 0 0 0 0 0 0 0 0 0 0 0 0 0 0 0 0 0.25 0"/>
<feBlend mode="normal" in2="BackgroundImageFix" result="effect1_dropShadow_107_15"/>
<feBlend mode="normal" in="SourceGraphic" in2="effect1_dropShadow_107_15" result="shape"/>
</filter>
</defs>
</svg>
